<?xml version="1.0" standalone="no"?>
<!DOCTYPE svg PUBLIC "-//W3C//DTD SVG 1.1//EN" "http://www.w3.org/Graphics/SVG/1.1/DTD/svg11.dtd">
<svg width="2560px" height="1600px" version="1.1" xmlns="http://www.w3.org/2000/svg" xmlns:xlink="http://www.w3.org/1999/xlink" xml:space="preserve" style="fill-rule:evenodd;clip-rule:evenodd;stroke-linejoin:round;stroke-miterlimit:1.41421;">
    <g>
        <g id="Layer1">
            <g>
                <g id="Arrow">
                    <g>
                        <path d="M364.111,483.839C458.445,346.612 624.557,351.033 652.303,456.429L621.768,497.681C561.135,408.395 480.547,414.161 408.15,510.453L364.111,483.839Z" style="fill:rgb(255,204,47);"/>
                    </g>
                    <g>
                        <path d="M661.942,522.37C625.082,506.458 579.065,492.68 523.889,481.035L675.967,378.945C662.968,437.013 655.915,487.752 661.942,522.37Z" style="fill:rgb(43,175,43);"/>
                    </g>
                </g>
                <g id="Arrow1">
                    <g>
                        <path d="M721.39,564.387C771.857,723.08 666.433,851.527 566.188,808.761L552.353,759.337C660.059,766.25 704.958,699.081 673.352,582.829L721.39,564.387Z" style="fill:rgb(255,204,47);"/>
                    </g>
                    <g>
                        <path d="M508.207,775.908C543.389,756.568 582.506,728.688 625.559,692.267L612.847,874.992C574.974,829.096 539.239,792.392 508.207,775.908Z" style="fill:rgb(0,172,238);"/>
                    </g>
                </g>
                <g id="Arrow2">
                    <g>
                        <path d="M481.561,805.096C315.043,806.596 223.334,668.024 293.723,584.816L345.03,586.148C306.708,687.043 357.677,749.73 478.082,753.758L481.561,805.096Z" style="fill:rgb(255,204,47);"/>
                    </g>
                    <g>
                        <path d="M342.193,539.08C350.315,578.397 365.441,623.989 387.569,675.858L216.689,609.904C271.702,587.225 317.302,563.882 342.193,539.08Z" style="fill:rgb(239,87,52);"/>
                    </g>
                </g>
                <g>
                    <path d="M389.173,648.887C389.119,646.627 389.886,644.783 391.474,643.357C393.062,641.93 395.013,641.217 397.328,641.217C399.965,641.217 402.28,642.724 404.272,645.738C407.017,649.829 409.466,652.601 411.619,654.055C416.194,657.069 422.842,658.576 431.562,658.576C439.905,658.576 447.656,656.773 454.815,653.167C463.966,648.537 468.541,642.105 468.541,633.87C468.541,627.087 464.693,621.732 456.995,617.802C450.482,614.411 442.435,612.581 432.854,612.312C424.349,611.989 417.109,610.132 411.135,606.741C403.491,602.381 399.669,596.137 399.669,588.009C399.669,578.428 405.106,569.681 415.979,561.768C426.368,554.286 437.106,550.545 448.194,550.545C453.416,550.545 459.31,551.433 465.877,553.21C474.597,555.524 478.957,558.485 478.957,562.091C478.957,566.828 476.534,569.196 471.69,569.196C469.537,569.196 465.769,568.618 460.386,567.46C455.004,566.303 450.832,565.751 447.872,565.805C439.474,565.913 432.342,567.985 426.475,572.022C420.447,576.167 417.432,581.2 417.432,587.121C417.432,591.588 421.415,594.737 429.382,596.567C432.342,597.267 438.075,597.913 446.58,598.505C458.906,599.42 468.541,603.296 475.485,610.132C481.836,616.376 485.012,623.992 485.012,632.981C485.012,645.792 479.091,656.019 467.249,663.663C456.968,670.284 445.046,673.594 431.481,673.594C421.631,673.594 412.615,671.71 404.433,667.942C394.421,663.313 389.335,656.961 389.173,648.887Z" style="fill:rgb(84,55,41);fill-rule:nonzero;"/>
                    <path d="M526.352,621.597C524.844,621.597 521.561,621.247 516.501,620.547C516.071,628.675 515.855,642.913 515.855,663.259C515.855,665.412 515.155,667.229 513.756,668.709C512.356,670.189 510.607,670.93 508.508,670.93C506.355,670.93 504.578,670.189 503.179,668.709C501.779,667.229 501.08,665.412 501.08,663.259L501.08,639.521C501.08,631.609 501.564,620.467 502.533,606.095C503.61,590.539 504.202,579.397 504.309,572.668L504.309,561.526C504.309,556.197 504.632,552.321 505.278,549.899C506.516,545.162 509.154,543.117 513.191,543.763C514.913,543.225 517.362,542.821 520.538,542.552C523.714,542.283 527.616,542.148 532.246,542.148C542.096,542.148 551.327,545.512 559.94,552.241C569.413,559.669 574.15,568.604 574.15,579.047C574.15,592.396 569.09,603.027 558.971,610.939C549.928,618.044 539.055,621.597 526.352,621.597ZM530.389,557.489C528.02,557.489 525.907,557.543 524.05,557.65C522.193,557.758 520.619,557.919 519.327,558.135L519.166,572.991L517.47,605.126L526.352,606.176C535.394,606.176 543.011,603.888 549.201,599.313C555.983,594.307 559.374,587.551 559.374,579.047C559.374,573.018 556.145,567.824 549.686,563.464C543.711,559.48 537.278,557.489 530.389,557.489Z" style="fill:rgb(84,55,41);fill-rule:nonzero;"/>
                    <path d="M656.344,568.389C652.899,568.389 648.566,568.039 643.345,567.339L630.346,565.644C629.108,581.307 628.489,596.271 628.489,610.536C628.489,614.303 628.596,618.959 628.811,624.504C629.027,630.048 629.134,634.704 629.134,638.472C629.134,643.532 628.946,648.134 628.569,652.278L654.003,651.956C656.263,651.956 658.161,652.749 659.695,654.337C661.229,655.925 661.996,657.877 661.996,660.191C661.996,662.559 661.229,664.538 659.695,666.126C658.161,667.713 656.263,668.507 654.003,668.507C650.988,668.507 646.467,668.575 640.438,668.709C634.41,668.844 629.888,668.911 626.874,668.911C623.321,668.911 618.006,669.409 610.927,670.405C603.849,671.401 598.507,671.898 594.9,671.898C592.64,671.898 590.742,671.105 589.208,669.517C587.674,667.929 586.907,665.977 586.907,663.663C586.907,661.348 587.674,659.384 589.208,657.769C590.742,656.154 592.64,655.347 594.9,655.347C598.399,655.347 604.186,654.781 612.26,653.651C612.798,649.291 613.067,644.312 613.067,638.714C613.067,635 612.892,630.465 612.542,625.109C612.192,619.753 612.017,615.245 612.017,611.585C612.017,599.151 612.771,583.622 614.278,564.998L603.782,565.321L593.286,565.563C590.971,565.563 589.033,564.782 587.472,563.221C585.911,561.66 585.131,559.669 585.131,557.247C585.131,552.241 587.661,549.496 592.72,549.011C597.08,548.58 605.235,548.365 617.185,548.365C627.896,548.365 641.326,549.522 657.474,551.837C662.265,552.537 664.66,555.417 664.66,560.476C664.66,563.006 663.745,565.025 661.915,566.532C660.3,567.77 658.443,568.389 656.344,568.389Z" style="fill:rgb(84,55,41);fill-rule:nonzero;"/>
                </g>
                <g>
                    <path d="M268.793,901.994C268.777,901.247 269.012,900.638 269.499,900.167C269.987,899.696 270.585,899.46 271.296,899.46C272.105,899.46 272.815,899.958 273.426,900.954C274.269,902.305 275.02,903.221 275.681,903.701C277.085,904.696 279.124,905.194 281.8,905.194C284.36,905.194 286.738,904.598 288.935,903.407C291.743,901.878 293.147,899.754 293.147,897.033C293.147,894.793 291.966,893.024 289.604,891.726C287.605,890.606 285.136,890.002 282.196,889.913C279.587,889.806 277.365,889.193 275.532,888.073C273.187,886.633 272.014,884.57 272.014,881.886C272.014,878.721 273.682,875.832 277.019,873.218C280.206,870.747 283.501,869.511 286.904,869.511C288.506,869.511 290.314,869.805 292.329,870.391C295.005,871.156 296.343,872.134 296.343,873.325C296.343,874.89 295.599,875.672 294.113,875.672C293.452,875.672 292.296,875.481 290.644,875.098C288.993,874.716 287.713,874.534 286.804,874.552C284.228,874.587 282.039,875.272 280.239,876.605C278.389,877.974 277.464,879.637 277.464,881.592C277.464,883.068 278.687,884.108 281.131,884.712C282.039,884.944 283.798,885.157 286.408,885.353C290.19,885.655 293.147,886.935 295.277,889.193C297.226,891.255 298.201,893.771 298.201,896.74C298.201,900.972 296.384,904.35 292.75,906.874C289.596,909.061 285.937,910.154 281.775,910.154C278.753,910.154 275.986,909.532 273.476,908.288C270.404,906.759 268.843,904.661 268.793,901.994Z" style="fill:rgb(84,55,41);fill-rule:nonzero;"/>
                    <path d="M320.671,885.913C320.324,885.913 319.916,885.895 319.445,885.859C318.974,885.824 318.565,885.806 318.218,885.806C317.839,885.806 316.715,885.939 314.849,886.206L315.32,901.967L315.345,903.141L315.369,904.501C315.435,908.394 314.568,910.341 312.768,910.341C312.107,910.341 311.533,910.11 311.046,909.648C310.559,909.186 310.315,908.608 310.315,907.914C310.315,907.239 310.34,906.225 310.39,904.874C310.439,903.523 310.464,902.509 310.464,901.834L309.969,886.259C308.763,886.206 306.93,886.055 304.469,885.806C302.999,885.593 302.264,884.712 302.264,883.166C302.264,882.383 302.487,881.734 302.933,881.219C303.379,880.703 303.948,880.445 304.642,880.445L309.845,880.899C309.845,879.992 309.808,878.779 309.733,877.259C309.659,875.738 309.622,874.641 309.622,873.965C309.622,873.218 309.861,872.6 310.34,872.112C310.819,871.623 311.405,871.378 312.099,871.378C313.586,871.378 314.453,872.685 314.701,875.298C314.75,875.956 314.775,876.747 314.775,877.672L314.725,879.219L314.701,880.872C316.749,880.588 317.921,880.445 318.218,880.445C319.936,880.445 321.059,880.534 321.588,880.712C322.595,881.068 323.099,881.903 323.099,883.219C323.099,884.001 322.872,884.646 322.418,885.153C321.964,885.659 321.381,885.913 320.671,885.913Z" style="fill:rgb(84,55,41);fill-rule:nonzero;"/>
                    <path d="M339.574,909.861C335.841,909.861 332.819,908.857 330.507,906.848C327.98,904.625 326.716,901.514 326.716,897.513C326.716,892.891 327.757,889.015 329.838,885.886C332.1,882.472 335.123,880.766 338.905,880.766C341.647,880.766 343.885,881.263 345.619,882.259C347.75,883.486 348.815,885.37 348.815,887.913C348.815,889.691 347.882,891.309 346.015,892.766C345.19,893.407 343.439,894.402 340.763,895.753L331.299,900.58C332.224,902.056 333.376,903.167 334.755,903.914C336.135,904.661 337.741,905.034 339.574,905.034C340.714,905.034 342.052,904.803 343.588,904.341C345.536,903.754 346.792,902.985 347.353,902.034C347.915,901.083 348.518,900.607 349.162,900.607C349.74,900.607 350.256,900.843 350.71,901.314C351.164,901.785 351.392,902.332 351.392,902.954C351.392,904.927 349.913,906.625 346.957,908.048C344.43,909.257 341.969,909.861 339.574,909.861ZM338.905,885.566C336.89,885.566 335.214,886.406 333.876,888.086C332.538,889.766 331.539,892.295 330.878,895.673L338.484,891.78C341.473,890.215 343.604,888.855 344.876,887.699C343.455,886.277 341.465,885.566 338.905,885.566Z" style="fill:rgb(84,55,41);fill-rule:nonzero;"/>
                    <path d="M366.331,909.568C364.679,909.568 362.862,909.283 360.88,908.714L360.831,921.462C360.831,922.244 360.603,922.884 360.149,923.382C359.695,923.88 359.113,924.129 358.403,924.129C357.692,924.129 357.11,923.88 356.656,923.382C356.202,922.884 355.975,922.244 355.975,921.462L356.049,910.795L356.049,900.154C356,896.26 355.876,892.713 355.677,889.513L355.306,884.099C355.306,882.837 355.521,881.77 355.95,880.899C356.446,879.85 357.164,879.325 358.105,879.325C358.75,879.325 359.29,879.57 359.728,880.059C360.166,880.548 360.385,881.148 360.385,881.859C360.385,882.019 360.36,882.312 360.31,882.739C360.228,883.29 360.17,883.797 360.137,884.259C361.557,883.21 362.928,882.423 364.249,881.899C365.571,881.374 366.834,881.112 368.04,881.112C371.426,881.112 373.903,882.73 375.472,885.966C376.711,888.526 377.33,891.913 377.33,896.127C377.33,899.967 376.372,903.132 374.457,905.621C372.425,908.252 369.716,909.568 366.331,909.568ZM368.04,886.446C366.52,886.446 365.15,886.81 363.927,887.539C363.052,888.055 361.945,888.997 360.608,890.366C360.822,894.402 360.93,898.642 360.93,903.087C362.73,903.834 364.53,904.207 366.331,904.207C368.395,904.207 369.972,903.381 371.062,901.727C372.004,900.287 372.475,898.42 372.475,896.127C372.475,892.891 372.107,890.468 371.372,888.859C370.637,887.25 369.526,886.446 368.04,886.446Z" style="fill:rgb(84,55,41);fill-rule:nonzero;"/>
                    <path d="M403.666,910.288C402.493,910.288 401.725,909.612 401.362,908.261C400.982,906.803 400.635,904.732 400.321,902.047C400.024,899.469 399.875,897.353 399.875,895.7C399.875,895.238 399.896,894.535 399.937,893.593C399.978,892.651 399.999,891.949 399.999,891.486C399.999,888.144 399.223,886.473 397.67,886.473C395.573,886.473 393.698,887.495 392.046,889.54C391.204,890.589 390.048,892.589 388.578,895.54C388.578,902.314 388.314,906.323 387.785,907.568C387.323,908.67 386.604,909.221 385.63,909.221C384.953,909.221 384.358,908.972 383.846,908.474C383.334,907.977 383.078,907.372 383.078,906.661C383.078,906.412 383.152,906.021 383.301,905.487C383.433,905.043 383.524,903.745 383.574,901.594L383.648,897.647L383.722,878.045C383.838,875.841 383.896,874.356 383.896,873.592C383.896,872.685 383.817,871.827 383.66,871.018C383.503,870.209 383.425,869.369 383.425,868.498C383.425,867.751 383.664,867.133 384.143,866.644C384.622,866.155 385.209,865.911 385.902,865.911C387.257,865.911 388.049,866.693 388.281,868.258C388.545,869.982 388.677,871.538 388.677,872.925C388.677,874.792 388.619,876.739 388.504,878.765C388.405,880.703 388.363,882.65 388.38,884.606L388.405,886.953C389.759,884.997 391.208,883.535 392.753,882.566C394.297,881.597 395.936,881.112 397.67,881.112C400.412,881.112 402.295,882.072 403.319,883.992C404.046,885.344 404.458,887.619 404.558,890.82L404.756,895.913L405.251,901.46C405.482,903.541 405.763,905.372 406.094,906.954C406.16,907.256 406.193,907.514 406.193,907.728C406.193,908.457 405.945,909.066 405.449,909.554C404.954,910.043 404.359,910.288 403.666,910.288Z" style="fill:rgb(84,55,41);fill-rule:nonzero;"/>
                    <path d="M423.807,909.861C420.075,909.861 417.052,908.857 414.74,906.848C412.213,904.625 410.949,901.514 410.949,897.513C410.949,892.891 411.99,889.015 414.071,885.886C416.334,882.472 419.356,880.766 423.138,880.766C425.88,880.766 428.118,881.263 429.852,882.259C431.983,883.486 433.048,885.37 433.048,887.913C433.048,889.691 432.115,891.309 430.249,892.766C429.423,893.407 427.672,894.402 424.997,895.753L415.533,900.58C416.458,902.056 417.61,903.167 418.989,903.914C420.368,904.661 421.974,905.034 423.807,905.034C424.947,905.034 426.285,904.803 427.821,904.341C429.77,903.754 431.025,902.985 431.587,902.034C432.148,901.083 432.751,900.607 433.395,900.607C433.973,900.607 434.489,900.843 434.943,901.314C435.398,901.785 435.625,902.332 435.625,902.954C435.625,904.927 434.147,906.625 431.19,908.048C428.663,909.257 426.202,909.861 423.807,909.861ZM423.138,885.566C421.123,885.566 419.447,886.406 418.109,888.086C416.771,889.766 415.772,892.295 415.111,895.673L422.717,891.78C425.707,890.215 427.837,888.855 429.109,887.699C427.689,886.277 425.698,885.566 423.138,885.566Z" style="fill:rgb(84,55,41);fill-rule:nonzero;"/>
                    <path d="M459.037,910.528C457.616,910.528 456.815,909.692 456.634,908.021L455.94,902.181C455.709,900.1 455.593,898.154 455.593,896.34C455.593,895.842 455.622,894.998 455.68,893.807C455.738,892.615 455.766,891.771 455.766,891.273C455.766,887.433 455.106,885.513 453.784,885.513C451.935,885.513 450.167,886.695 448.483,889.059C446.963,891.211 445.774,893.931 444.915,897.22C444.882,897.914 444.808,898.785 444.692,899.834C444.593,900.723 444.544,901.585 444.544,902.421C444.544,902.954 444.593,903.754 444.692,904.821C444.791,905.887 444.841,906.688 444.841,907.221C444.841,908.021 444.614,908.67 444.16,909.168C443.705,909.666 443.123,909.914 442.413,909.914C441.686,909.914 441.1,909.666 440.654,909.168C440.208,908.67 439.985,908.021 439.985,907.221C439.985,906.688 439.931,905.887 439.824,904.821C439.717,903.754 439.663,902.954 439.663,902.421C439.663,900.589 439.783,898.051 440.022,894.807C440.262,891.562 440.381,889.024 440.381,887.193C440.381,886.624 440.353,885.779 440.295,884.659C440.237,883.539 440.208,882.695 440.208,882.126C440.208,881.361 440.443,880.734 440.914,880.245C441.385,879.757 441.967,879.512 442.661,879.512C444.18,879.512 445.014,880.668 445.163,882.979L445.237,886.099C448.012,882.117 450.861,880.125 453.784,880.125C456.427,880.125 458.269,881.379 459.309,883.886C460.019,885.557 460.408,888.028 460.474,891.3L460.474,893.993L460.449,896.473C460.449,897.949 460.626,899.856 460.981,902.194C461.337,904.532 461.514,906.43 461.514,907.888C461.514,908.67 461.279,909.306 460.808,909.794C460.337,910.283 459.747,910.528 459.037,910.528Z" style="fill:rgb(84,55,41);fill-rule:nonzero;"/>
                    <path d="M498.18,910.261C493.523,910.261 489.575,908.759 486.338,905.754C482.903,902.554 481.185,898.429 481.185,893.38C481.185,887.228 482.878,881.637 486.264,876.605C490.046,871.023 494.761,868.231 500.41,868.231C505.844,868.231 509.882,869.547 512.525,872.178C515.283,874.916 516.662,879.237 516.662,885.139C516.662,891.291 515.11,896.838 512.005,901.78C508.437,907.434 503.829,910.261 498.18,910.261ZM500.41,873.698C496.364,873.698 492.936,875.867 490.129,880.205C487.536,884.188 486.239,888.579 486.239,893.38C486.239,896.811 487.42,899.603 489.782,901.754C492.045,903.781 494.844,904.794 498.18,904.794C502.194,904.794 505.505,902.616 508.115,898.26C510.444,894.367 511.608,889.993 511.608,885.139C511.608,880.89 510.724,877.903 508.957,876.178C507.273,874.525 504.424,873.698 500.41,873.698Z" style="fill:rgb(84,55,41);fill-rule:nonzero;"/>
                    <path d="M530.263,870.071C530.263,870.605 530.305,871.396 530.387,872.445C530.47,873.494 530.511,874.285 530.511,874.818C530.511,877.094 529.768,878.232 528.281,878.232C527.257,878.232 526.605,877.841 526.324,877.059C526.192,876.65 526.126,875.805 526.126,874.525C526.126,874.027 526.081,873.285 525.99,872.298C525.899,871.311 525.853,870.569 525.853,870.071C525.853,868.293 525.92,867.093 526.052,866.471C526.382,865.067 527.109,864.364 528.232,864.364C528.859,864.364 529.388,864.582 529.817,865.018C530.247,865.453 530.461,866.009 530.461,866.684C530.461,867.058 530.428,867.622 530.362,868.378C530.296,869.133 530.263,869.698 530.263,870.071Z" style="fill:rgb(84,55,41);fill-rule:nonzero;"/>
                    <path d="M567.078,909.728C564.568,909.728 560.992,907.354 556.351,902.607L548.943,894.58L548.943,894.953L548.918,908.928C548.918,910.688 548.2,911.568 546.763,911.568C545.822,911.568 545.07,911.123 544.509,910.234C544.046,909.506 543.815,908.714 543.815,907.861C543.815,903.701 543.931,897.478 544.162,889.193C544.393,880.908 544.509,874.694 544.509,870.551C544.509,869.787 544.744,869.138 545.215,868.605C545.685,868.071 546.268,867.805 546.961,867.805C547.672,867.805 548.262,868.071 548.733,868.605C549.203,869.138 549.439,869.787 549.439,870.551C549.439,872.276 549.34,874.961 549.141,878.605C548.943,882.126 548.852,884.819 548.869,886.686C551.082,884.428 553.584,881.592 556.376,878.179L563.486,869.298C564.047,868.605 564.675,868.258 565.369,868.258C566.029,868.258 566.616,868.525 567.128,869.058C567.64,869.591 567.896,870.24 567.896,871.005C567.896,872.178 565.765,875.307 561.504,880.392C558.564,883.859 555.525,887.255 552.387,890.58C554.369,892.82 557.474,896.038 561.702,900.234L564.303,902.581C565.245,903.363 566.261,903.95 567.351,904.341C568.655,904.803 569.308,905.683 569.308,906.981C569.308,907.585 569.134,908.163 568.788,908.714C568.358,909.39 567.788,909.728 567.078,909.728Z" style="fill:rgb(84,55,41);fill-rule:nonzero;"/>
                    <path d="M584.519,909.861C580.787,909.861 577.764,908.857 575.452,906.848C572.925,904.625 571.661,901.514 571.661,897.513C571.661,892.891 572.702,889.015 574.783,885.886C577.046,882.472 580.068,880.766 583.851,880.766C586.592,880.766 588.83,881.263 590.564,882.259C592.695,883.486 593.76,885.37 593.76,887.913C593.76,889.691 592.827,891.309 590.961,892.766C590.135,893.407 588.384,894.402 585.709,895.753L576.245,900.58C577.17,902.056 578.322,903.167 579.701,903.914C581.08,904.661 582.686,905.034 584.519,905.034C585.659,905.034 586.997,904.803 588.533,904.341C590.482,903.754 591.737,902.985 592.299,902.034C592.86,901.083 593.463,900.607 594.107,900.607C594.685,900.607 595.201,900.843 595.656,901.314C596.11,901.785 596.337,902.332 596.337,902.954C596.337,904.927 594.859,906.625 591.902,908.048C589.375,909.257 586.914,909.861 584.519,909.861ZM583.851,885.566C581.836,885.566 580.159,886.406 578.821,888.086C577.483,889.766 576.484,892.295 575.824,895.673L583.429,891.78C586.419,890.215 588.549,888.855 589.821,887.699C588.401,886.277 586.411,885.566 583.851,885.566Z" style="fill:rgb(84,55,41);fill-rule:nonzero;"/>
                    <path d="M619.749,910.528C618.328,910.528 617.527,909.692 617.346,908.021L616.652,902.181C616.421,900.1 616.305,898.154 616.305,896.34C616.305,895.842 616.334,894.998 616.392,893.807C616.45,892.615 616.479,891.771 616.479,891.273C616.479,887.433 615.818,885.513 614.497,885.513C612.647,885.513 610.879,886.695 609.195,889.059C607.675,891.211 606.486,893.931 605.627,897.22C605.594,897.914 605.52,898.785 605.404,899.834C605.305,900.723 605.256,901.585 605.256,902.421C605.256,902.954 605.305,903.754 605.404,904.821C605.503,905.887 605.553,906.688 605.553,907.221C605.553,908.021 605.326,908.67 604.872,909.168C604.417,909.666 603.835,909.914 603.125,909.914C602.398,909.914 601.812,909.666 601.366,909.168C600.92,908.67 600.697,908.021 600.697,907.221C600.697,906.688 600.643,905.887 600.536,904.821C600.429,903.754 600.375,902.954 600.375,902.421C600.375,900.589 600.495,898.051 600.734,894.807C600.974,891.562 601.094,889.024 601.094,887.193C601.094,886.624 601.065,885.779 601.007,884.659C600.949,883.539 600.92,882.695 600.92,882.126C600.92,881.361 601.155,880.734 601.626,880.245C602.097,879.757 602.679,879.512 603.373,879.512C604.892,879.512 605.726,880.668 605.875,882.979L605.949,886.099C608.724,882.117 611.573,880.125 614.497,880.125C617.139,880.125 618.981,881.379 620.021,883.886C620.731,885.557 621.12,888.028 621.186,891.3L621.186,893.993L621.161,896.473C621.161,897.949 621.338,899.856 621.694,902.194C622.049,904.532 622.226,906.43 622.226,907.888C622.226,908.67 621.991,909.306 621.52,909.794C621.049,910.283 620.459,910.528 619.749,910.528Z" style="fill:rgb(84,55,41);fill-rule:nonzero;"/>
                    <path d="M646.307,910.528C644.887,910.528 644.086,909.692 643.904,908.021L643.21,902.181C642.979,900.1 642.863,898.154 642.863,896.34C642.863,895.842 642.892,894.998 642.95,893.807C643.008,892.615 643.037,891.771 643.037,891.273C643.037,887.433 642.376,885.513 641.055,885.513C639.205,885.513 637.438,886.695 635.753,889.059C634.234,891.211 633.044,893.931 632.186,897.22C632.152,897.914 632.078,898.785 631.963,899.834C631.863,900.723 631.814,901.585 631.814,902.421C631.814,902.954 631.863,903.754 631.963,904.821C632.062,905.887 632.111,906.688 632.111,907.221C632.111,908.021 631.884,908.67 631.43,909.168C630.976,909.666 630.394,909.914 629.683,909.914C628.957,909.914 628.37,909.666 627.924,909.168C627.478,908.67 627.255,908.021 627.255,907.221C627.255,906.688 627.202,905.887 627.094,904.821C626.987,903.754 626.933,902.954 626.933,902.421C626.933,900.589 627.053,898.051 627.293,894.807C627.532,891.562 627.652,889.024 627.652,887.193C627.652,886.624 627.623,885.779 627.565,884.659C627.507,883.539 627.478,882.695 627.478,882.126C627.478,881.361 627.714,880.734 628.184,880.245C628.655,879.757 629.237,879.512 629.931,879.512C631.451,879.512 632.285,880.668 632.433,882.979L632.508,886.099C635.282,882.117 638.131,880.125 641.055,880.125C643.697,880.125 645.539,881.379 646.58,883.886C647.29,885.557 647.678,888.028 647.744,891.3L647.744,893.993L647.719,896.473C647.719,897.949 647.897,899.856 648.252,902.194C648.607,904.532 648.784,906.43 648.784,907.888C648.784,908.67 648.549,909.306 648.078,909.794C647.608,910.283 647.017,910.528 646.307,910.528Z" style="fill:rgb(84,55,41);fill-rule:nonzero;"/>
                    <path d="M665.433,909.861C661.7,909.861 658.678,908.857 656.365,906.848C653.838,904.625 652.575,901.514 652.575,897.513C652.575,892.891 653.615,889.015 655.697,885.886C657.959,882.472 660.982,880.766 664.764,880.766C667.506,880.766 669.744,881.263 671.478,882.259C673.608,883.486 674.674,885.37 674.674,887.913C674.674,889.691 673.741,891.309 671.874,892.766C671.048,893.407 669.298,894.402 666.622,895.753L657.158,900.58C658.083,902.056 659.235,903.167 660.614,903.914C661.993,904.661 663.6,905.034 665.433,905.034C666.573,905.034 667.91,904.803 669.446,904.341C671.395,903.754 672.651,902.985 673.212,902.034C673.774,901.083 674.376,900.607 675.021,900.607C675.599,900.607 676.115,900.843 676.569,901.314C677.023,901.785 677.25,902.332 677.25,902.954C677.25,904.927 675.772,906.625 672.816,908.048C670.289,909.257 667.828,909.861 665.433,909.861ZM664.764,885.566C662.749,885.566 661.073,886.406 659.735,888.086C658.397,889.766 657.398,892.295 656.737,895.673L664.343,891.78C667.332,890.215 669.463,888.855 670.735,887.699C669.314,886.277 667.324,885.566 664.764,885.566Z" style="fill:rgb(84,55,41);fill-rule:nonzero;"/>
                    <path d="M704.477,885.086C704.279,887.699 704.18,890.313 704.18,892.926C704.18,898.847 704.436,903.318 704.948,906.341C704.981,906.59 704.998,906.794 704.998,906.954C704.998,907.665 704.767,908.252 704.304,908.714C703.842,909.177 703.305,909.408 702.694,909.408C701.67,909.408 700.918,908.608 700.439,907.008C699.25,907.95 698.015,908.661 696.735,909.141C695.455,909.621 694.122,909.861 692.734,909.861C689.315,909.861 686.483,908.634 684.237,906.181C681.924,903.674 680.768,900.456 680.768,896.527C680.768,891.78 681.937,887.975 684.274,885.113C686.611,882.25 689.646,880.819 693.379,880.819C695.294,880.819 696.773,881.139 697.813,881.779L700.142,883.619C700.373,876.134 700.646,871.094 700.96,868.498C701.174,866.916 701.926,866.124 703.214,866.124C704.717,866.124 705.468,866.987 705.468,868.711C705.468,871.183 705.138,876.641 704.477,885.086ZM693.478,885.779C690.703,885.779 688.622,886.664 687.234,888.433C685.847,890.202 685.153,892.864 685.153,896.42C685.153,898.714 685.909,900.687 687.42,902.341C688.931,903.994 690.703,904.821 692.734,904.821C694.122,904.821 695.294,904.545 696.252,903.994C696.814,903.674 697.731,902.936 699.002,901.78C699.25,901.549 699.49,901.274 699.721,900.954L699.646,896.34L699.671,893.246L699.721,890.1C699.093,888.659 698.259,887.579 697.219,886.859C696.178,886.139 694.931,885.779 693.478,885.779Z" style="fill:rgb(84,55,41);fill-rule:nonzero;"/>
                    <path d="M733.067,884.846L724.495,904.794C722.381,909.648 720.763,913.71 719.639,916.982L718.004,922.155C717.575,923.436 716.832,924.076 715.775,924.076C715.081,924.076 714.482,923.831 713.978,923.342C713.475,922.853 713.223,922.244 713.223,921.515C713.223,919.737 715.007,914.59 718.574,906.074L709.705,887.699L708.59,885.753C708.144,884.935 707.921,884.25 707.921,883.699C707.921,882.97 708.181,882.33 708.702,881.779C709.222,881.228 709.804,880.952 710.448,880.952C711.208,880.952 711.794,881.263 712.207,881.886C715.015,886.081 718.029,892.055 721.25,899.807L724.916,890.606C726.238,887.424 727.509,884.686 728.732,882.392C729.26,881.397 729.954,880.899 730.813,880.899C731.49,880.899 732.089,881.157 732.609,881.672C733.129,882.188 733.389,882.801 733.389,883.512C733.389,883.904 733.282,884.348 733.067,884.846Z" style="fill:rgb(84,55,41);fill-rule:nonzero;"/>
                </g>
                <g>
                    <path d="M399.577,964C396.355,964 393.667,963.025 391.513,961.076C389.25,959.033 388.118,956.337 388.118,952.988C388.118,949.797 389.179,946.504 391.301,943.109C393.659,939.336 396.316,937.45 399.271,937.45C400.811,937.45 402.533,937.811 404.435,938.534C406.84,939.462 408.042,940.594 408.042,941.93C408.042,942.527 407.846,943.058 407.453,943.521C407.06,943.985 406.572,944.217 405.991,944.217C405.535,944.217 405.138,944.079 404.8,943.804C404.462,943.529 404.136,943.258 403.822,942.991C402.894,942.252 401.377,941.883 399.271,941.883C397.667,941.883 396.08,943.313 394.508,946.174C393.077,948.799 392.362,951.071 392.362,952.988C392.362,955.063 393.069,956.698 394.484,957.893C395.805,959.009 397.502,959.567 399.577,959.567C400.52,959.567 401.527,959.315 402.595,958.812L405.331,957.351C405.802,957.099 406.14,956.973 406.345,956.973C406.926,956.973 407.429,957.205 407.854,957.669C408.278,958.133 408.49,958.663 408.49,959.26C408.49,960.408 407.28,961.516 404.859,962.585C402.737,963.528 400.976,964 399.577,964Z" style="fill:rgb(84,55,41);fill-rule:nonzero;"/>
                    <path d="M427.047,962.538L422.355,962.538L417.686,962.514C416.586,962.514 415.816,962.444 415.375,962.302C414.574,962.019 414.173,961.422 414.173,960.51C414.173,958.923 415.407,958.129 417.875,958.129L419.007,958.152L419.973,958.199C419.973,957.445 419.907,956.329 419.773,954.851C419.639,953.374 419.573,952.265 419.573,951.526C419.573,949.53 419.753,946.496 420.115,942.425C420.461,938.416 420.626,935.375 420.61,933.3C418.504,934.935 417.16,935.752 416.578,935.752C415.949,935.752 415.403,935.516 414.939,935.045C414.475,934.573 414.244,934.031 414.244,933.418C414.244,932.679 414.92,931.783 416.271,930.73C417.12,930.132 418.323,929.173 419.879,927.853C421.262,926.454 422.583,925.754 423.84,925.754C424.894,925.754 425.42,926.36 425.42,927.57C425.42,927.931 425.373,928.47 425.279,929.185C425.184,929.9 425.137,930.439 425.137,930.8C425.137,931.319 425.165,932.105 425.22,933.158C425.275,934.211 425.302,934.997 425.302,935.516C425.302,937.308 425.114,939.98 424.736,943.533C424.359,947.086 424.17,949.75 424.17,951.526C424.17,952.438 424.233,953.546 424.359,954.851C424.485,956.156 424.556,957.225 424.571,958.058L427.047,958.011C427.707,958.011 428.254,958.227 428.686,958.659C429.118,959.091 429.334,959.63 429.334,960.274C429.334,960.935 429.118,961.477 428.686,961.901C428.254,962.326 427.707,962.538 427.047,962.538Z" style="fill:rgb(84,55,41);fill-rule:nonzero;"/>
                    <path d="M448.787,962.538L444.095,962.538L439.426,962.514C438.326,962.514 437.556,962.444 437.116,962.302C436.314,962.019 435.913,961.422 435.913,960.51C435.913,958.923 437.147,958.129 439.615,958.129L440.747,958.152L441.713,958.199C441.713,957.445 441.647,956.329 441.513,954.851C441.379,953.374 441.313,952.265 441.313,951.526C441.313,949.53 441.493,946.496 441.855,942.425C442.201,938.416 442.366,935.375 442.35,933.3C440.244,934.935 438.9,935.752 438.318,935.752C437.689,935.752 437.143,935.516 436.679,935.045C436.216,934.573 435.984,934.031 435.984,933.418C435.984,932.679 436.66,931.783 438.012,930.73C438.86,930.132 440.063,929.173 441.619,927.853C443.002,926.454 444.323,925.754 445.58,925.754C446.634,925.754 447.16,926.36 447.16,927.57C447.16,927.931 447.113,928.47 447.019,929.185C446.924,929.9 446.877,930.439 446.877,930.8C446.877,931.319 446.905,932.105 446.96,933.158C447.015,934.211 447.042,934.997 447.042,935.516C447.042,937.308 446.854,939.98 446.476,943.533C446.099,947.086 445.911,949.75 445.911,951.526C445.911,952.438 445.973,953.546 446.099,954.851C446.225,956.156 446.296,957.225 446.311,958.058L448.787,958.011C449.447,958.011 449.994,958.227 450.426,958.659C450.858,959.091 451.074,959.63 451.074,960.274C451.074,960.935 450.858,961.477 450.426,961.901C449.994,962.326 449.447,962.538 448.787,962.538Z" style="fill:rgb(84,55,41);fill-rule:nonzero;"/>
                    <path d="M476.658,952.21L476.658,960.935C476.658,962.397 475.943,963.127 474.512,963.127C472.846,963.127 472.013,961.988 472.013,959.708C472.013,959.426 472.029,959.025 472.06,958.506C472.091,957.987 472.107,957.634 472.107,957.445L472.084,952.092L461.685,951.833C459.532,951.833 458.038,951.762 457.205,951.621C455.775,951.385 455.059,950.827 455.059,949.947C455.059,949.239 455.492,948.343 456.356,947.259L458.384,944.854L469.985,927.924C471.038,926.462 472.374,925.731 473.993,925.731C475.77,925.731 476.658,926.501 476.658,928.042L476.658,947.636C476.925,947.62 477.247,947.612 477.625,947.612C480.517,947.612 481.963,948.39 481.963,949.947C481.963,951.078 481.366,951.794 480.171,952.092C479.637,952.234 478.466,952.273 476.658,952.21ZM472.084,932.262C467.886,938.959 464.609,943.973 462.251,947.306L472.084,947.542L472.084,932.262Z" style="fill:rgb(84,55,41);fill-rule:nonzero;"/>
                    <path d="M510.612,931.72L508.466,934.219C506.423,936.609 504.544,939.501 502.831,942.896L498.54,952.305C498.241,952.996 497.581,954.812 496.559,957.751C495.741,960.078 494.979,961.815 494.272,962.962C493.832,963.701 493.203,964.071 492.385,964.071C491.757,964.071 491.202,963.851 490.723,963.41C490.244,962.97 490.004,962.444 490.004,961.831C490.004,961.233 490.507,959.701 491.513,957.233L496.818,944.24C499.16,939.1 501.566,935.139 504.033,932.357L504.482,931.861L492.645,931.626L487.339,931.484C485.815,931.343 485.052,930.588 485.052,929.22C485.052,928.56 485.272,928.018 485.712,927.594C486.153,927.169 486.703,926.957 487.363,926.957C489.344,926.957 492.319,927.02 496.288,927.146C500.257,927.271 503.232,927.334 505.212,927.334L509.527,927.334C511.194,927.334 512.027,927.829 512.027,928.82C512.027,929.558 511.555,930.525 510.612,931.72Z" style="fill:rgb(84,55,41);fill-rule:nonzero;"/>
                    <path d="M527.353,963.788C524.037,963.788 521.356,963.065 519.313,961.618C516.986,959.984 515.8,957.586 515.752,954.427C515.69,949.349 517.474,945.891 521.105,944.052C518.307,942.354 516.908,939.941 516.908,936.813C516.908,933.842 517.985,931.374 520.138,929.409C522.197,927.523 524.697,926.564 527.636,926.532C534.239,926.47 537.54,929.731 537.54,936.318C537.54,938.204 537.162,939.658 536.408,940.68C535.795,941.529 534.608,942.401 532.847,943.297C535.19,944.476 536.832,945.75 537.775,947.117C538.876,948.721 539.426,950.929 539.426,953.743C539.426,956.95 538.239,959.465 535.866,961.288C533.665,962.955 530.827,963.788 527.353,963.788ZM527.566,930.753C525.538,930.753 523.989,931.327 522.92,932.474C521.962,933.543 521.49,934.99 521.506,936.813C521.521,939.014 523.329,940.578 526.929,941.505C528.815,940.955 530.167,940.405 530.985,939.855C532.289,938.974 532.942,937.795 532.942,936.318C532.942,934.18 532.462,932.679 531.503,931.814C530.686,931.107 529.373,930.753 527.566,930.753ZM527.141,945.679C524.642,946.842 522.976,947.848 522.142,948.697C520.838,950.002 520.225,951.841 520.303,954.215C520.366,956.179 521.27,957.649 523.015,958.624C524.288,959.315 525.734,959.661 527.353,959.661C530.12,959.661 532.054,959.009 533.154,957.704C534.034,956.667 534.474,955.095 534.474,952.988C534.474,950.929 533.673,949.271 532.069,948.013C531,947.149 529.358,946.37 527.141,945.679Z" style="fill:rgb(84,55,41);fill-rule:nonzero;"/>
                    <path d="M560.836,959.661C559.688,960.51 557.849,961.532 555.318,962.727C552.505,964.079 550.548,964.754 549.447,964.754C548.803,964.754 548.272,964.519 547.856,964.047C547.439,963.575 547.231,963.025 547.231,962.397C547.231,961.469 547.765,960.77 548.834,960.298L552.772,958.954C555.208,957.964 557.134,956.824 558.549,955.535C559.964,954.246 561.253,952.415 562.416,950.041L563.43,948.013C562.549,948.516 561.418,948.98 560.034,949.404C558.651,949.829 557.527,950.041 556.662,950.041C553.691,950.041 551.121,949.216 548.952,947.565C546.311,945.553 544.991,942.692 544.991,938.982C544.991,934.597 546.343,931.303 549.046,929.103C551.357,927.232 554.391,926.297 558.148,926.297C561.04,926.297 563.634,927.476 565.929,929.834C568.35,932.333 569.568,935.351 569.584,938.888C569.6,942.881 568.861,946.756 567.367,950.513C565.764,954.568 563.587,957.618 560.836,959.661ZM557.488,930.329C554.847,930.329 552.862,931.013 551.534,932.38C550.206,933.748 549.534,935.807 549.518,938.558C549.518,940.869 550.327,942.661 551.947,943.934C553.377,945.05 555.177,945.608 557.346,945.608C558.604,945.608 559.916,945.231 561.284,944.476C561.913,944.13 563.045,943.352 564.679,942.142C564.884,940.774 564.986,939.69 564.986,938.888C564.97,936.923 564.141,935.005 562.498,933.135C560.856,931.264 559.185,930.329 557.488,930.329Z" style="fill:rgb(84,55,41);fill-rule:nonzero;"/>
                    <path d="M599.034,931.72L596.889,934.219C594.845,936.609 592.967,939.501 591.253,942.896L586.962,952.305C586.663,952.996 586.003,954.812 584.981,957.751C584.164,960.078 583.401,961.815 582.694,962.962C582.254,963.701 581.625,964.071 580.808,964.071C580.179,964.071 579.625,963.851 579.145,963.41C578.666,962.97 578.426,962.444 578.426,961.831C578.426,961.233 578.929,959.701 579.935,957.233L585.241,944.24C587.583,939.1 589.988,935.139 592.456,932.357L592.904,931.861L581.067,931.626L575.762,931.484C574.237,931.343 573.474,930.588 573.474,929.22C573.474,928.56 573.695,928.018 574.135,927.594C574.575,927.169 575.125,926.957 575.785,926.957C577.766,926.957 580.741,927.02 584.71,927.146C588.679,927.271 591.654,927.334 593.635,927.334L597.95,927.334C599.616,927.334 600.449,927.829 600.449,928.82C600.449,929.558 599.978,930.525 599.034,931.72Z" style="fill:rgb(84,55,41);fill-rule:nonzero;"/>
                    <path d="M625.066,962.562C624.673,962.562 624.119,962.44 623.404,962.196C622.688,961.952 622.142,961.831 621.765,961.831C620.963,961.831 619.761,961.878 618.157,961.972C616.554,962.066 615.343,962.114 614.526,962.114C613.913,962.114 613.005,962.192 611.803,962.349C610.6,962.507 609.692,962.585 609.079,962.585C608.906,962.585 608.655,962.554 608.325,962.491C607.995,962.428 607.743,962.397 607.57,962.397C606.485,962.397 605.778,961.87 605.448,960.817C605.259,960.267 605.165,959.323 605.165,957.987C605.165,954.325 606.163,951.377 608.16,949.145C609.071,948.123 611.531,946.237 615.54,943.486C617.788,941.945 619.289,940.743 620.044,939.878C621.395,938.369 622.071,936.601 622.071,934.573C622.071,933.567 621.419,932.671 620.114,931.885C618.967,931.178 617.843,930.824 616.742,930.824C615.296,930.824 613.921,931.24 612.616,932.074L609.244,934.714C608.568,935.249 608.026,935.516 607.617,935.516C605.998,935.516 605.189,934.872 605.189,933.583C605.189,932.844 605.487,932.207 606.085,931.673C607.924,929.944 609.519,928.694 610.871,927.924C612.773,926.839 614.73,926.297 616.742,926.297C619.289,926.297 621.56,926.988 623.557,928.372C625.789,929.928 626.905,931.924 626.905,934.361C626.905,935.964 626.677,937.442 626.221,938.794C625.765,940.146 625.074,941.38 624.146,942.496C622.967,943.91 620.971,945.49 618.157,947.235C615.202,949.09 613.261,950.497 612.333,951.456C610.588,953.263 609.732,955.456 609.763,958.034L614.62,957.586C617.953,957.398 620.334,957.303 621.765,957.303C622.96,957.303 624.091,957.508 625.16,957.916C626.575,958.467 627.282,959.229 627.282,960.204C627.282,960.817 627.07,961.363 626.646,961.842C626.221,962.322 625.695,962.562 625.066,962.562Z" style="fill:rgb(84,55,41);fill-rule:nonzero;"/>
                </g>
                <g>
                    <path d="M879.368,660.8C877.513,660.8 875.779,660.019 874.168,658.457C858.006,642.49 840.037,631.748 820.262,626.23L820.848,640.586L821.214,655.014C821.214,657.163 820.518,658.957 819.126,660.398C817.735,661.838 815.989,662.558 813.89,662.558C811.79,662.558 810.044,661.838 808.653,660.398C807.261,658.957 806.565,657.163 806.565,655.014C806.565,651.157 806.382,645.407 806.016,637.766C805.65,630.124 805.467,624.375 805.467,620.517C805.467,616.025 805.955,609.336 806.932,600.449C807.908,591.562 808.396,584.897 808.396,580.454C808.396,577.964 808.165,574.277 807.701,569.394C807.237,564.511 807.005,560.825 807.005,558.335C807.005,555.551 807.786,553.11 809.349,551.01C811.204,548.423 813.768,547.251 817.039,547.495L834.69,548.886C841.38,549.716 847.019,551.352 851.609,553.794C871.385,564.292 881.272,577.109 881.272,592.246C881.272,599.668 877.903,606.235 871.165,611.948C865.745,616.538 858.982,620.029 850.877,622.422C866.062,630.576 877.415,639.17 884.935,648.203C886.204,649.765 886.839,651.425 886.839,653.183C886.839,655.234 886.094,657.016 884.605,658.53C883.116,660.044 881.37,660.8 879.368,660.8ZM832.713,563.974L821.873,563.095L822.605,571.958C822.947,575.571 823.118,578.525 823.118,580.82C823.118,584.726 822.801,589.585 822.166,595.395L820.628,609.97C821.311,609.97 822.373,609.995 823.814,610.044C825.254,610.092 826.341,610.117 827.073,610.117C839.524,610.117 848.851,608.457 855.052,605.136C857.786,603.623 860.325,601.645 862.669,599.204C865.257,596.469 866.551,594.15 866.551,592.246C866.551,585.459 862.693,579.135 854.978,573.276C847.898,567.905 840.477,564.804 832.713,563.974Z" style="fill:rgb(84,55,41);fill-rule:nonzero;"/>
                    <path d="M935.545,663.364C924.51,663.364 915.574,660.605 908.738,655.088C901.268,648.984 897.532,640.439 897.532,629.453C897.532,616.758 900.608,606.113 906.761,597.519C913.45,588.144 922.386,583.457 933.567,583.457C941.673,583.457 948.289,584.824 953.416,587.558C959.715,590.927 962.864,596.103 962.864,603.086C962.864,607.968 960.105,612.412 954.588,616.416C952.146,618.174 946.971,620.908 939.061,624.619L911.082,637.876C913.816,641.928 917.222,644.98 921.299,647.031C925.376,649.082 930.125,650.107 935.545,650.107C938.914,650.107 942.869,649.472 947.41,648.203C953.172,646.591 956.883,644.48 958.543,641.867C960.203,639.255 961.985,637.949 963.89,637.949C965.599,637.949 967.124,638.596 968.467,639.89C969.81,641.184 970.481,642.685 970.481,644.394C970.481,649.814 966.111,654.477 957.371,658.383C949.9,661.704 942.625,663.364 935.545,663.364ZM933.567,596.64C927.61,596.64 922.654,598.947 918.699,603.562C914.744,608.176 911.79,615.122 909.837,624.399L932.322,613.706C941.16,609.409 947.459,605.674 951.219,602.5C947.019,598.593 941.136,596.64 933.567,596.64Z" style="fill:rgb(84,55,41);fill-rule:nonzero;"/>
                    <path d="M1017.28,656.186C1017.14,660.678 1014.91,662.925 1010.62,662.925C1007.05,662.925 1004.47,660.825 1002.85,656.626L991.648,626.889L978.611,593.271C978.123,592.002 977.879,590.879 977.879,589.902C977.879,587.9 978.636,586.191 980.149,584.775C981.663,583.359 983.421,582.651 985.423,582.651C988.352,582.651 990.452,584.14 991.722,587.119L1010.33,638.315C1013.99,630.503 1018.6,619.175 1024.17,604.331C1025.49,600.425 1027.56,594.907 1030.39,587.778C1031.91,584.653 1034.06,583.091 1036.84,583.091C1038.84,583.091 1040.6,583.799 1042.11,585.215C1043.63,586.631 1044.38,588.315 1044.38,590.268C1044.38,592.124 1040.35,602.573 1032.3,621.616L1017.28,656.186Z" style="fill:rgb(84,55,41);fill-rule:nonzero;"/>
                    <path d="M1070.46,567.27C1068.11,567.27 1066.09,566.44 1064.38,564.78C1062.67,563.12 1061.81,561.118 1061.81,558.774C1061.81,556.43 1062.67,554.428 1064.38,552.768C1066.09,551.108 1068.11,550.278 1070.46,550.278C1072.8,550.278 1074.81,551.108 1076.5,552.768C1078.18,554.428 1079.03,556.43 1079.03,558.774C1079.03,561.118 1078.18,563.12 1076.5,564.78C1074.81,566.44 1072.8,567.27 1070.46,567.27ZM1073.75,626.743C1073.75,629.673 1073.84,634.055 1074.01,639.89C1074.18,645.725 1074.27,650.107 1074.27,653.037C1074.27,655.185 1073.61,656.943 1072.29,658.31C1070.97,659.677 1069.24,660.361 1067.09,660.361C1064.99,660.361 1063.27,659.677 1061.92,658.31C1060.58,656.943 1059.91,655.185 1059.91,653.037C1059.91,650.107 1059.82,645.725 1059.65,639.89C1059.48,634.055 1059.4,629.673 1059.4,626.743C1059.4,622.153 1059.64,616.428 1060.13,609.568C1060.62,602.707 1060.86,596.982 1060.86,592.392C1060.86,590.195 1061.53,588.413 1062.88,587.046C1064.22,585.678 1065.94,584.995 1068.04,584.995C1070.14,584.995 1071.86,585.678 1073.2,587.046C1074.55,588.413 1075.22,590.195 1075.22,592.392C1075.22,596.982 1074.97,602.707 1074.49,609.568C1074,616.428 1073.75,622.153 1073.75,626.743Z" style="fill:rgb(84,55,41);fill-rule:nonzero;"/>
                    <path d="M1132.71,663.364C1121.68,663.364 1112.74,660.605 1105.91,655.088C1098.44,648.984 1094.7,640.439 1094.7,629.453C1094.7,616.758 1097.78,606.113 1103.93,597.519C1110.62,588.144 1119.55,583.457 1130.74,583.457C1138.84,583.457 1145.46,584.824 1150.58,587.558C1156.88,590.927 1160.03,596.103 1160.03,603.086C1160.03,607.968 1157.27,612.412 1151.76,616.416C1149.31,618.174 1144.14,620.908 1136.23,624.619L1108.25,637.876C1110.98,641.928 1114.39,644.98 1118.47,647.031C1122.54,649.082 1127.29,650.107 1132.71,650.107C1136.08,650.107 1140.04,649.472 1144.58,648.203C1150.34,646.591 1154.05,644.48 1155.71,641.867C1157.37,639.255 1159.15,637.949 1161.06,637.949C1162.77,637.949 1164.29,638.596 1165.64,639.89C1166.98,641.184 1167.65,642.685 1167.65,644.394C1167.65,649.814 1163.28,654.477 1154.54,658.383C1147.07,661.704 1139.79,663.364 1132.71,663.364ZM1130.74,596.64C1124.78,596.64 1119.82,598.947 1115.87,603.562C1111.91,608.176 1108.96,615.122 1107,624.399L1129.49,613.706C1138.33,609.409 1144.63,605.674 1148.39,602.5C1144.19,598.593 1138.3,596.64 1130.74,596.64Z" style="fill:rgb(84,55,41);fill-rule:nonzero;"/>
                    <path d="M1268.36,594.443C1264.55,610.361 1259.57,628.354 1253.42,648.423C1252.05,652.866 1249.78,657.431 1246.6,662.119C1244.9,664.707 1242.58,665.976 1239.65,665.927C1234.32,665.83 1230.17,659.214 1227.2,646.079C1226.22,641.88 1225.22,636.167 1224.19,628.94L1221.78,612.607L1215.77,626.596L1204.64,656.845C1204,658.701 1203.07,660.117 1201.85,661.093C1200.39,663.925 1198.04,665.39 1194.82,665.488C1191.11,665.634 1187.52,658.359 1184.06,643.662C1182.3,636.093 1180.54,625.84 1178.78,612.9L1177.02,601.914C1176.39,597.519 1176.07,593.833 1176.07,590.854C1176.07,588.803 1176.79,587.107 1178.23,585.764C1179.67,584.421 1181.42,583.75 1183.47,583.75C1187.18,583.75 1189.48,585.776 1190.35,589.829C1190.99,592.71 1191.5,596.274 1191.89,600.522L1192.99,611.289L1197.31,644.175C1202.73,629.135 1208.35,611.801 1214.16,592.173C1215.77,586.753 1218.58,584.043 1222.58,584.043C1226.44,584.043 1229.05,587.07 1230.42,593.125C1231.69,598.838 1233.27,607.627 1235.18,619.492C1237.13,631.797 1238.87,641.391 1240.38,648.276L1245.73,628.354L1255.17,588.437C1255.91,585.459 1258.01,583.969 1261.47,583.969C1263.52,583.969 1265.31,584.665 1266.82,586.057C1268.33,587.448 1269.09,589.121 1269.09,591.074C1269.09,591.318 1268.85,592.441 1268.36,594.443Z" style="fill:rgb(84,55,41);fill-rule:nonzero;"/>
                    <path d="M1332.74,603.598C1330.05,603.598 1328.17,602.695 1327.1,600.888C1326.37,599.619 1325.73,596.982 1325.19,592.978C1321.53,593.906 1315.89,595.615 1308.27,598.105C1300.41,601.23 1296.46,605.088 1296.41,609.677C1297.87,610.215 1299.31,610.605 1300.73,610.849C1311.96,612.851 1320.31,615.61 1325.78,619.126C1333.74,624.253 1337.72,631.675 1337.72,641.391C1337.72,649.35 1334.28,655.356 1327.39,659.409C1321.68,662.729 1314.45,664.389 1305.71,664.389C1299.31,664.389 1293.21,663.315 1287.4,661.167C1279.88,658.432 1276.12,654.624 1276.12,649.741C1276.12,647.788 1276.89,646.079 1278.43,644.614C1279.97,643.149 1281.71,642.417 1283.66,642.417C1285.18,642.417 1287.13,643.589 1289.52,645.932C1290.7,647.055 1293.33,647.983 1297.43,648.716C1300.71,649.301 1303.46,649.594 1305.71,649.594C1309.81,649.594 1313.43,649.106 1316.55,648.13C1321.09,646.714 1323.36,644.467 1323.36,641.391C1323.36,634.751 1318.72,630.258 1309.45,627.915L1301.83,626.23C1295.33,624.814 1290.72,623.154 1287.99,621.25C1284.03,618.515 1282.05,614.389 1282.05,608.872C1282.05,598.667 1286.86,591.391 1296.48,587.046C1299.41,585.727 1304.1,584.153 1310.54,582.321C1316.99,580.49 1321.6,578.94 1324.39,577.671C1326.39,576.792 1328.56,576.352 1330.91,576.352C1333.01,576.352 1334.73,577.036 1336.07,578.403C1337.41,579.77 1338.08,581.552 1338.08,583.75C1338.08,585.166 1338.39,587.241 1339,589.975C1339.61,592.71 1339.91,594.785 1339.91,596.201C1339.91,598.398 1339.24,600.18 1337.9,601.548C1336.56,602.915 1334.84,603.598 1332.74,603.598Z" style="fill:rgb(84,55,41);fill-rule:nonzero;"/>
                </g>
            </g>
        </g>
    </g>
</svg>
