<?xml version="1.0" standalone="no"?>
<!DOCTYPE svg PUBLIC "-//W3C//DTD SVG 1.1//EN" "http://www.w3.org/Graphics/SVG/1.1/DTD/svg11.dtd">
<svg width="200px" height="200px" version="1.1" xmlns="http://www.w3.org/2000/svg" xmlns:xlink="http://www.w3.org/1999/xlink" xml:space="preserve" style="fill-rule:evenodd;clip-rule:evenodd;stroke-linejoin:round;stroke-miterlimit:1.41421;">
    <g>
        <g id="Layer1">
            <g id="SPI - Assignment Logo">
                <g id="Arrow">
                    <g>
                        <path d="M58.7409,34.3242C89.0191,-10.5806 142.336,-9.13373 151.242,25.3548L141.441,38.8536C121.979,9.63686 96.1133,11.5235 72.876,43.0329L58.7409,34.3242Z" style="fill:rgb(255,204,47);"/>
                    </g>
                    <g>
                        <path d="M154.335,46.9324C142.505,41.7258 127.734,37.2171 110.025,33.4066L158.837,-1.42109e-14C154.665,19.0012 152.401,35.6045 154.335,46.9324Z" style="fill:rgb(43,175,43);"/>
                    </g>
                </g>
                <g id="Arrow1">
                    <g>
                        <path d="M173.416,60.6818C189.615,112.61 155.777,154.642 123.601,140.648L119.161,124.475C153.731,126.737 168.142,104.757 157.998,66.7164L173.416,60.6818Z" style="fill:rgb(255,204,47);"/>
                    </g>
                    <g>
                        <path d="M104.991,129.897C116.284,123.569 128.839,114.446 142.658,102.528L138.577,162.321C126.422,147.302 114.952,135.291 104.991,129.897Z" style="fill:rgb(0,172,238);"/>
                    </g>
                </g>
                <g id="Arrow2">
                    <g>
                        <path d="M96.4386,139.449C42.9917,139.939 13.5559,94.5946 36.1486,67.3667L52.6165,67.8027C40.3162,100.818 56.6759,121.331 95.3221,122.649L96.4386,139.449Z" style="fill:rgb(255,204,47);"/>
                    </g>
                    <g>
                        <path d="M51.7058,52.4006C54.313,65.2661 59.1678,80.1853 66.2704,97.1581L11.423,75.5761C29.0805,68.1549 43.7166,60.5166 51.7058,52.4006Z" style="fill:rgb(239,87,52);"/>
                    </g>
                </g>
                <g>
                    <path d="M66.7851,88.3326C66.7678,87.5929 67.014,86.9896 67.5237,86.5228C68.0333,86.0561 68.6596,85.8227 69.4025,85.8227C70.2491,85.8227 70.992,86.3159 71.6312,87.3022C72.5123,88.6409 73.2984,89.548 73.9895,90.0236C75.458,91.0099 77.5917,91.5031 80.3906,91.5031C83.0685,91.5031 85.5564,90.9131 87.8542,89.7329C90.7913,88.2182 92.2598,86.1133 92.2598,83.4184C92.2598,81.1991 91.0245,79.4465 88.5539,78.1607C86.4634,77.051 83.8805,76.4522 80.8052,76.3641C78.0755,76.2584 75.7518,75.6507 73.834,74.5411C71.3807,73.1143 70.1541,71.0711 70.1541,68.4115C70.1541,65.2762 71.899,62.414 75.3889,59.8248C78.7234,57.3764 82.1701,56.1523 85.7291,56.1523C87.405,56.1523 89.2968,56.4429 91.4046,57.0242C94.2034,57.7816 95.6029,58.7503 95.6029,59.9304C95.6029,61.4805 94.8254,62.2555 93.2705,62.2555C92.5794,62.2555 91.37,62.0661 89.6423,61.6874C87.9147,61.3087 86.5757,61.1282 85.6255,61.1458C82.9303,61.181 80.6411,61.8591 78.7579,63.1802C76.8229,64.5364 75.8554,66.1833 75.8554,68.1208C75.8554,69.5828 77.1339,70.6132 79.6909,71.2121C80.6411,71.441 82.4811,71.6524 85.2108,71.8462C89.1672,72.1456 92.2598,73.4138 94.4885,75.6507C96.5272,77.6939 97.5465,80.1863 97.5465,83.1278C97.5465,87.3199 95.6461,90.6665 91.8451,93.1676C88.5453,95.3341 84.7184,96.4174 80.3647,96.4174C77.203,96.4174 74.3091,95.8009 71.6831,94.5679C68.4696,93.0531 66.8369,90.9747 66.7851,88.3326Z" style="fill:rgb(84,55,41);fill-rule:nonzero;"/>
                    <path d="M110.815,79.4025C110.331,79.4025 109.277,79.288 107.653,79.059C107.515,81.7187 107.446,86.3775 107.446,93.0355C107.446,93.7401 107.222,94.3345 106.772,94.8189C106.323,95.3033 105.762,95.5455 105.088,95.5455C104.397,95.5455 103.827,95.3033 103.377,94.8189C102.928,94.3345 102.704,93.7401 102.704,93.0355L102.704,85.2678C102.704,82.6786 102.859,79.0326 103.17,74.3297C103.516,69.2393 103.706,65.5933 103.74,63.3915L103.74,59.7455C103.74,58.0017 103.844,56.7335 104.051,55.9409C104.449,54.3909 105.295,53.7216 106.591,53.933C107.144,53.7568 107.93,53.6247 108.949,53.5366C109.969,53.4486 111.221,53.4045 112.707,53.4045C115.869,53.4045 118.832,54.5054 121.596,56.7071C124.637,59.1378 126.157,62.0617 126.157,65.4788C126.157,69.847 124.533,73.3257 121.285,75.9149C118.382,78.24 114.892,79.4025 110.815,79.4025ZM112.111,58.4245C111.351,58.4245 110.673,58.4421 110.077,58.4773C109.48,58.5125 108.975,58.5654 108.561,58.6358L108.509,63.4972L107.964,74.0126L110.815,74.3561C113.718,74.3561 116.162,73.6075 118.149,72.1104C120.326,70.4723 121.414,68.2618 121.414,65.4788C121.414,63.506 120.378,61.8063 118.305,60.3796C116.387,59.0762 114.322,58.4245 112.111,58.4245Z" style="fill:rgb(84,55,41);fill-rule:nonzero;"/>
                    <path d="M152.539,61.9913C151.433,61.9913 150.042,61.8768 148.366,61.6478L144.194,61.093C143.797,66.2186 143.598,71.1152 143.598,75.7828C143.598,77.0158 143.633,78.5394 143.702,80.3536C143.771,82.1678 143.805,83.6914 143.805,84.9244C143.805,86.5801 143.745,88.086 143.624,89.4423L151.787,89.3366C152.513,89.3366 153.122,89.5964 153.614,90.116C154.107,90.6356 154.353,91.2741 154.353,92.0315C154.353,92.8065 154.107,93.4538 153.614,93.9735C153.122,94.4931 152.513,94.7529 151.787,94.7529C150.82,94.7529 149.368,94.7749 147.433,94.8189C145.498,94.8629 144.047,94.885 143.08,94.885C141.939,94.885 140.233,95.0479 137.961,95.3737C135.689,95.6996 133.975,95.8625 132.817,95.8625C132.092,95.8625 131.483,95.6027 130.99,95.0831C130.498,94.5635 130.252,93.925 130.252,93.1676C130.252,92.4102 130.498,91.7673 130.99,91.2389C131.483,90.7105 132.092,90.4463 132.817,90.4463C133.94,90.4463 135.797,90.2614 138.389,89.8915C138.562,88.4647 138.648,86.8355 138.648,85.0036C138.648,83.7883 138.592,82.3043 138.48,80.5518C138.367,78.7992 138.311,77.324 138.311,76.1263C138.311,72.0575 138.553,66.9759 139.037,60.8816L135.668,60.9873L132.299,61.0665C131.556,61.0665 130.934,60.8111 130.433,60.3003C129.932,59.7895 129.681,59.1378 129.681,58.3452C129.681,56.7071 130.493,55.8088 132.117,55.6503C133.517,55.5094 136.134,55.4389 139.97,55.4389C143.408,55.4389 147.718,55.8176 152.902,56.575C154.439,56.804 155.208,57.7463 155.208,59.402C155.208,60.2299 154.914,60.8904 154.327,61.3836C153.809,61.7887 153.213,61.9913 152.539,61.9913Z" style="fill:rgb(84,55,41);fill-rule:nonzero;"/>
                </g>
                <g>
                    <path d="M28.1469,171.156C28.1416,170.912 28.2172,170.713 28.3735,170.558C28.5299,170.404 28.7221,170.327 28.9501,170.327C29.2098,170.327 29.4378,170.49 29.6339,170.816C29.9043,171.258 30.1455,171.558 30.3575,171.715C30.8081,172.041 31.4628,172.203 32.3216,172.203C33.1433,172.203 33.9067,172.009 34.6118,171.619C35.513,171.118 35.9636,170.423 35.9636,169.533C35.9636,168.8 35.5845,168.221 34.8265,167.796C34.185,167.43 33.3925,167.232 32.4489,167.203C31.6113,167.168 30.8983,166.967 30.3098,166.601C29.557,166.13 29.1807,165.455 29.1807,164.576C29.1807,163.541 29.7161,162.595 30.7869,161.74C31.8101,160.931 32.8677,160.527 33.9597,160.527C34.4739,160.527 35.0544,160.623 35.7012,160.815C36.56,161.065 36.9894,161.385 36.9894,161.775C36.9894,162.287 36.7508,162.543 36.2737,162.543C36.0617,162.543 35.6906,162.48 35.1604,162.355C34.6303,162.23 34.2195,162.171 33.9279,162.176C33.1009,162.188 32.3985,162.412 31.8207,162.848C31.2269,163.296 30.9301,163.84 30.9301,164.48C30.9301,164.963 31.3224,165.303 32.1069,165.501C32.3985,165.577 32.9631,165.647 33.8007,165.711C35.0147,165.81 35.9636,166.229 36.6474,166.967C37.273,167.642 37.5858,168.465 37.5858,169.437C37.5858,170.822 37.0026,171.927 35.8363,172.753C34.8238,173.469 33.6496,173.827 32.3137,173.827C31.3436,173.827 30.4556,173.623 29.6498,173.216C28.6638,172.715 28.1628,172.029 28.1469,171.156Z" style="fill:rgb(84,55,41);fill-rule:nonzero;"/>
                    <path d="M44.7981,165.894C44.6868,165.894 44.5555,165.888 44.4045,165.877C44.2534,165.865 44.1222,165.859 44.0108,165.859C43.8889,165.859 43.5284,165.903 42.9294,165.99L43.0805,171.148L43.0884,171.532L43.0964,171.977C43.1176,173.251 42.8393,173.888 42.2614,173.888C42.0494,173.888 41.8652,173.812 41.7088,173.661C41.5524,173.51 41.4742,173.32 41.4742,173.094C41.4742,172.873 41.4822,172.541 41.4981,172.099C41.514,171.657 41.5219,171.325 41.5219,171.104L41.3629,166.007C40.9759,165.99 40.3875,165.941 39.5976,165.859C39.1258,165.789 38.8899,165.501 38.8899,164.995C38.8899,164.739 38.9614,164.527 39.1046,164.358C39.2477,164.189 39.4306,164.105 39.6532,164.105L41.3231,164.253C41.3231,163.957 41.3112,163.56 41.2873,163.062C41.2635,162.565 41.2516,162.205 41.2516,161.984C41.2516,161.74 41.3284,161.538 41.4822,161.378C41.6359,161.218 41.8241,161.138 42.0467,161.138C42.5239,161.138 42.8022,161.566 42.8817,162.421C42.8976,162.636 42.9055,162.895 42.9055,163.197L42.8896,163.704L42.8817,164.245C43.539,164.152 43.9154,164.105 44.0108,164.105C44.5622,164.105 44.9227,164.134 45.0923,164.192C45.4157,164.309 45.5774,164.582 45.5774,165.013C45.5774,165.269 45.5045,165.479 45.3587,165.645C45.2129,165.811 45.026,165.894 44.7981,165.894Z" style="fill:rgb(84,55,41);fill-rule:nonzero;"/>
                    <path d="M50.8653,173.731C49.6673,173.731 48.6971,173.402 47.955,172.745C47.1439,172.017 46.7383,170.999 46.7383,169.69C46.7383,168.178 47.0723,166.909 47.7403,165.885C48.4665,164.768 49.4367,164.21 50.6506,164.21C51.5306,164.21 52.249,164.373 52.8056,164.698C53.4894,165.1 53.8314,165.717 53.8314,166.549C53.8314,167.13 53.5319,167.66 52.9328,168.137C52.6678,168.346 52.1058,168.672 51.247,169.114L48.2094,170.694C48.5063,171.177 48.8761,171.54 49.3187,171.785C49.7614,172.029 50.2769,172.151 50.8653,172.151C51.2311,172.151 51.6605,172.075 52.1535,171.924C52.7791,171.732 53.182,171.481 53.3622,171.169C53.5425,170.858 53.736,170.702 53.9427,170.702C54.1282,170.702 54.2939,170.78 54.4397,170.934C54.5855,171.088 54.6584,171.267 54.6584,171.47C54.6584,172.116 54.1839,172.672 53.235,173.137C52.4239,173.533 51.634,173.731 50.8653,173.731ZM50.6506,165.781C50.0039,165.781 49.4658,166.055 49.0364,166.605C48.607,167.155 48.2863,167.983 48.0742,169.088L50.5155,167.814C51.475,167.302 52.1588,166.857 52.567,166.479C52.1111,166.013 51.4723,165.781 50.6506,165.781Z" style="fill:rgb(84,55,41);fill-rule:nonzero;"/>
                    <path d="M59.4533,173.635C58.9232,173.635 58.3401,173.542 57.7039,173.355L57.688,177.527C57.688,177.783 57.6151,177.992 57.4693,178.155C57.3236,178.318 57.1367,178.399 56.9087,178.399C56.6808,178.399 56.4939,178.318 56.3481,178.155C56.2024,177.992 56.1295,177.783 56.1295,177.527L56.1533,174.036L56.1533,170.554C56.1374,169.28 56.0977,168.119 56.034,167.072L55.9148,165.301C55.9148,164.888 55.9837,164.538 56.1215,164.253C56.2805,163.91 56.5111,163.738 56.8133,163.738C57.0201,163.738 57.1937,163.818 57.3342,163.978C57.4746,164.138 57.5449,164.335 57.5449,164.568C57.5449,164.62 57.5369,164.716 57.521,164.856C57.4945,165.036 57.476,165.202 57.4654,165.353C57.9213,165.01 58.3613,164.752 58.7854,164.581C59.2095,164.409 59.615,164.323 60.002,164.323C61.0888,164.323 61.8839,164.853 62.3876,165.911C62.7852,166.749 62.984,167.858 62.984,169.236C62.984,170.493 62.6765,171.529 62.0615,172.343C61.4095,173.204 60.5401,173.635 59.4533,173.635ZM60.002,166.069C59.5143,166.069 59.0743,166.188 58.682,166.426C58.401,166.595 58.0459,166.903 57.6165,167.351C57.6854,168.672 57.7198,170.06 57.7198,171.514C58.2977,171.758 58.8755,171.881 59.4533,171.881C60.116,171.881 60.6223,171.61 60.9721,171.069C61.2743,170.598 61.4254,169.987 61.4254,169.236C61.4254,168.178 61.3074,167.385 61.0715,166.858C60.8356,166.332 60.4791,166.069 60.002,166.069Z" style="fill:rgb(84,55,41);fill-rule:nonzero;"/>
                    <path d="M71.4368,173.87C71.0604,173.87 70.8139,173.649 70.6972,173.207C70.5753,172.73 70.464,172.052 70.3633,171.174C70.2678,170.33 70.2201,169.638 70.2201,169.097C70.2201,168.945 70.2268,168.716 70.24,168.407C70.2533,168.099 70.2599,167.869 70.2599,167.718C70.2599,166.624 70.0107,166.077 69.5124,166.077C68.8392,166.077 68.2375,166.412 67.7073,167.081C67.437,167.424 67.0659,168.079 66.5941,169.044C66.5941,171.261 66.5093,172.573 66.3396,172.98C66.1912,173.341 65.9606,173.521 65.6478,173.521C65.4305,173.521 65.2396,173.44 65.0753,173.277C64.9109,173.114 64.8288,172.916 64.8288,172.683C64.8288,172.602 64.8526,172.474 64.9003,172.299C64.9428,172.154 64.9719,171.729 64.9878,171.025L65.0117,169.734L65.0355,163.32C65.0726,162.598 65.0912,162.112 65.0912,161.862C65.0912,161.566 65.066,161.285 65.0156,161.02C64.9653,160.755 64.9401,160.481 64.9401,160.195C64.9401,159.951 65.017,159.749 65.1707,159.589C65.3244,159.429 65.5126,159.349 65.7353,159.349C66.17,159.349 66.4244,159.605 66.4987,160.117C66.5835,160.681 66.6259,161.19 66.6259,161.644C66.6259,162.255 66.6073,162.892 66.5702,163.555C66.5384,164.189 66.5252,164.826 66.5305,165.466L66.5384,166.234C66.9731,165.594 67.4383,165.116 67.934,164.799C68.4296,164.482 68.9558,164.323 69.5124,164.323C70.3924,164.323 70.9968,164.637 71.3254,165.266C71.5587,165.708 71.6912,166.453 71.723,167.5L71.7866,169.167L71.9457,170.982C72.0199,171.662 72.11,172.262 72.216,172.779C72.2372,172.878 72.2479,172.963 72.2479,173.033C72.2479,173.271 72.1683,173.47 72.0093,173.63C71.8503,173.79 71.6594,173.87 71.4368,173.87Z" style="fill:rgb(84,55,41);fill-rule:nonzero;"/>
                    <path d="M77.9016,173.731C76.7035,173.731 75.7334,173.402 74.9912,172.745C74.1801,172.017 73.7746,170.999 73.7746,169.69C73.7746,168.178 74.1086,166.909 74.7765,165.885C75.5028,164.768 76.4729,164.21 77.6869,164.21C78.5669,164.21 79.2852,164.373 79.8419,164.698C80.5257,165.1 80.8677,165.717 80.8677,166.549C80.8677,167.13 80.5681,167.66 79.9691,168.137C79.704,168.346 79.1421,168.672 78.2833,169.114L75.2457,170.694C75.5426,171.177 75.9123,171.54 76.355,171.785C76.7976,172.029 77.3132,172.151 77.9016,172.151C78.2674,172.151 78.6968,172.075 79.1898,171.924C79.8154,171.732 80.2183,171.481 80.3985,171.169C80.5787,170.858 80.7722,170.702 80.979,170.702C81.1645,170.702 81.3302,170.78 81.476,170.934C81.6218,171.088 81.6946,171.267 81.6946,171.47C81.6946,172.116 81.2202,172.672 80.2713,173.137C79.4602,173.533 78.6703,173.731 77.9016,173.731ZM77.6869,165.781C77.0402,165.781 76.5021,166.055 76.0727,166.605C75.6433,167.155 75.3226,167.983 75.1105,169.088L77.5517,167.814C78.5113,167.302 79.1951,166.857 79.6033,166.479C79.1474,166.013 78.5086,165.781 77.6869,165.781Z" style="fill:rgb(84,55,41);fill-rule:nonzero;"/>
                    <path d="M89.2091,173.949C88.7532,173.949 88.4961,173.675 88.4378,173.129L88.2152,171.217C88.1409,170.537 88.1038,169.9 88.1038,169.306C88.1038,169.143 88.1131,168.867 88.1317,168.477C88.1502,168.087 88.1595,167.811 88.1595,167.648C88.1595,166.391 87.9474,165.763 87.5233,165.763C86.9296,165.763 86.3624,166.15 85.8217,166.924C85.3339,167.628 84.9522,168.518 84.6766,169.594C84.666,169.821 84.6421,170.106 84.605,170.449C84.5732,170.74 84.5573,171.022 84.5573,171.296C84.5573,171.47 84.5732,171.732 84.605,172.081C84.6368,172.43 84.6527,172.692 84.6527,172.867C84.6527,173.129 84.5798,173.341 84.4341,173.504C84.2883,173.667 84.1014,173.748 83.8734,173.748C83.6402,173.748 83.452,173.667 83.3089,173.504C83.1657,173.341 83.0942,173.129 83.0942,172.867C83.0942,172.692 83.0769,172.43 83.0425,172.081C83.008,171.732 82.9908,171.47 82.9908,171.296C82.9908,170.697 83.0292,169.866 83.1061,168.804C83.183,167.743 83.2214,166.912 83.2214,166.313C83.2214,166.127 83.2121,165.85 83.1936,165.484C83.175,165.117 83.1657,164.841 83.1657,164.655C83.1657,164.405 83.2413,164.2 83.3924,164.04C83.5434,163.88 83.7303,163.8 83.953,163.8C84.4407,163.8 84.7084,164.178 84.7561,164.934L84.78,165.955C85.6706,164.652 86.585,164 87.5233,164C88.3715,164 88.9626,164.41 89.2966,165.231C89.5246,165.778 89.6491,166.586 89.6703,167.657L89.6703,168.538L89.6624,169.35C89.6624,169.833 89.7194,170.457 89.8334,171.222C89.9473,171.987 90.0043,172.608 90.0043,173.085C90.0043,173.341 89.9288,173.549 89.7777,173.709C89.6266,173.869 89.4371,173.949 89.2091,173.949Z" style="fill:rgb(84,55,41);fill-rule:nonzero;"/>
                    <path d="M101.773,173.862C100.278,173.862 99.0111,173.37 97.9721,172.387C96.8694,171.34 96.3181,169.99 96.3181,168.338C96.3181,166.325 96.8615,164.495 97.9482,162.848C99.1622,161.022 100.676,160.108 102.489,160.108C104.233,160.108 105.529,160.539 106.377,161.4C107.262,162.296 107.705,163.709 107.705,165.641C107.705,167.654 107.207,169.469 106.21,171.086C105.065,172.937 103.586,173.862 101.773,173.862ZM102.489,161.897C101.19,161.897 100.09,162.607 99.1887,164.026C98.3564,165.33 97.9403,166.767 97.9403,168.338C97.9403,169.46 98.3193,170.374 99.0774,171.078C99.8036,171.741 100.702,172.073 101.773,172.073C103.061,172.073 104.124,171.36 104.962,169.935C105.709,168.66 106.083,167.229 106.083,165.641C106.083,164.25 105.799,163.273 105.232,162.709C104.691,162.168 103.777,161.897 102.489,161.897Z" style="fill:rgb(84,55,41);fill-rule:nonzero;"/>
                    <path d="M112.071,160.71C112.071,160.885 112.084,161.144 112.11,161.487C112.137,161.83 112.15,162.089 112.15,162.264C112.15,163.008 111.912,163.381 111.435,163.381C111.106,163.381 110.896,163.253 110.806,162.997C110.764,162.863 110.743,162.587 110.743,162.168C110.743,162.005 110.728,161.762 110.699,161.439C110.67,161.116 110.655,160.873 110.655,160.71C110.655,160.129 110.676,159.736 110.719,159.532C110.825,159.073 111.058,158.843 111.419,158.843C111.62,158.843 111.79,158.914 111.928,159.057C112.065,159.199 112.134,159.381 112.134,159.602C112.134,159.724 112.124,159.909 112.103,160.156C112.081,160.403 112.071,160.588 112.071,160.71Z" style="fill:rgb(84,55,41);fill-rule:nonzero;"/>
                    <path d="M123.887,173.687C123.081,173.687 121.934,172.91 120.444,171.357L118.066,168.73L118.066,168.852L118.058,173.425C118.058,174.001 117.828,174.289 117.367,174.289C117.064,174.289 116.823,174.144 116.643,173.853C116.495,173.614 116.42,173.355 116.42,173.076C116.42,171.715 116.457,169.679 116.532,166.967C116.606,164.256 116.643,162.223 116.643,160.867C116.643,160.617 116.719,160.405 116.87,160.23C117.021,160.056 117.208,159.969 117.43,159.969C117.658,159.969 117.848,160.056 117.999,160.23C118.15,160.405 118.225,160.617 118.225,160.867C118.225,161.432 118.194,162.31 118.13,163.503C118.066,164.655 118.037,165.536 118.043,166.147C118.753,165.408 119.556,164.48 120.452,163.363L122.734,160.457C122.914,160.23 123.116,160.117 123.338,160.117C123.551,160.117 123.739,160.204 123.903,160.379C124.067,160.553 124.15,160.766 124.15,161.016C124.15,161.4 123.466,162.424 122.098,164.088C121.154,165.222 120.179,166.333 119.172,167.421C119.808,168.154 120.804,169.207 122.162,170.58L122.997,171.348C123.299,171.604 123.625,171.796 123.975,171.924C124.393,172.075 124.603,172.363 124.603,172.788C124.603,172.986 124.547,173.175 124.436,173.355C124.298,173.576 124.115,173.687 123.887,173.687Z" style="fill:rgb(84,55,41);fill-rule:nonzero;"/>
                    <path d="M129.485,173.731C128.287,173.731 127.317,173.402 126.575,172.745C125.764,172.017 125.358,170.999 125.358,169.69C125.358,168.178 125.692,166.909 126.36,165.885C127.086,164.768 128.057,164.21 129.271,164.21C130.151,164.21 130.869,164.373 131.425,164.698C132.109,165.1 132.451,165.717 132.451,166.549C132.451,167.13 132.152,167.66 131.553,168.137C131.288,168.346 130.726,168.672 129.867,169.114L126.829,170.694C127.126,171.177 127.496,171.54 127.939,171.785C128.381,172.029 128.897,172.151 129.485,172.151C129.851,172.151 130.28,172.075 130.773,171.924C131.399,171.732 131.802,171.481 131.982,171.169C132.162,170.858 132.356,170.702 132.563,170.702C132.748,170.702 132.914,170.78 133.06,170.934C133.205,171.088 133.278,171.267 133.278,171.47C133.278,172.116 132.804,172.672 131.855,173.137C131.044,173.533 130.254,173.731 129.485,173.731ZM129.271,165.781C128.624,165.781 128.086,166.055 127.656,166.605C127.227,167.155 126.906,167.983 126.694,169.088L129.135,167.814C130.095,167.302 130.779,166.857 131.187,166.479C130.731,166.013 130.092,165.781 129.271,165.781Z" style="fill:rgb(84,55,41);fill-rule:nonzero;"/>
                    <path d="M140.793,173.949C140.337,173.949 140.08,173.675 140.021,173.129L139.799,171.217C139.725,170.537 139.687,169.9 139.687,169.306C139.687,169.143 139.697,168.867 139.715,168.477C139.734,168.087 139.743,167.811 139.743,167.648C139.743,166.391 139.531,165.763 139.107,165.763C138.513,165.763 137.946,166.15 137.405,166.924C136.918,167.628 136.536,168.518 136.26,169.594C136.25,169.821 136.226,170.106 136.189,170.449C136.157,170.74 136.141,171.022 136.141,171.296C136.141,171.47 136.157,171.732 136.189,172.081C136.22,172.43 136.236,172.692 136.236,172.867C136.236,173.129 136.163,173.341 136.018,173.504C135.872,173.667 135.685,173.748 135.457,173.748C135.224,173.748 135.036,173.667 134.892,173.504C134.749,173.341 134.678,173.129 134.678,172.867C134.678,172.692 134.661,172.43 134.626,172.081C134.592,171.732 134.574,171.47 134.574,171.296C134.574,170.697 134.613,169.866 134.69,168.804C134.767,167.743 134.805,166.912 134.805,166.313C134.805,166.127 134.796,165.85 134.777,165.484C134.759,165.117 134.749,164.841 134.749,164.655C134.749,164.405 134.825,164.2 134.976,164.04C135.127,163.88 135.314,163.8 135.537,163.8C136.024,163.8 136.292,164.178 136.34,164.934L136.364,165.955C137.254,164.652 138.169,164 139.107,164C139.955,164 140.546,164.41 140.88,165.231C141.108,165.778 141.233,166.586 141.254,167.657L141.254,168.538L141.246,169.35C141.246,169.833 141.303,170.457 141.417,171.222C141.531,171.987 141.588,172.608 141.588,173.085C141.588,173.341 141.512,173.549 141.361,173.709C141.21,173.869 141.021,173.949 140.793,173.949Z" style="fill:rgb(84,55,41);fill-rule:nonzero;"/>
                    <path d="M149.317,173.949C148.861,173.949 148.604,173.675 148.546,173.129L148.323,171.217C148.249,170.537 148.212,169.9 148.212,169.306C148.212,169.143 148.221,168.867 148.24,168.477C148.258,168.087 148.267,167.811 148.267,167.648C148.267,166.391 148.055,165.763 147.631,165.763C147.038,165.763 146.47,166.15 145.93,166.924C145.442,167.628 145.06,168.518 144.785,169.594C144.774,169.821 144.75,170.106 144.713,170.449C144.681,170.74 144.665,171.022 144.665,171.296C144.665,171.47 144.681,171.732 144.713,172.081C144.745,172.43 144.761,172.692 144.761,172.867C144.761,173.129 144.688,173.341 144.542,173.504C144.396,173.667 144.209,173.748 143.981,173.748C143.748,173.748 143.56,173.667 143.417,173.504C143.274,173.341 143.202,173.129 143.202,172.867C143.202,172.692 143.185,172.43 143.15,172.081C143.116,171.732 143.099,171.47 143.099,171.296C143.099,170.697 143.137,169.866 143.214,168.804C143.291,167.743 143.329,166.912 143.329,166.313C143.329,166.127 143.32,165.85 143.302,165.484C143.283,165.117 143.274,164.841 143.274,164.655C143.274,164.405 143.349,164.2 143.5,164.04C143.651,163.88 143.838,163.8 144.061,163.8C144.549,163.8 144.816,164.178 144.864,164.934L144.888,165.955C145.779,164.652 146.693,164 147.631,164C148.48,164 149.071,164.41 149.405,165.231C149.633,165.778 149.757,166.586 149.778,167.657L149.778,168.538L149.77,169.35C149.77,169.833 149.827,170.457 149.941,171.222C150.055,171.987 150.112,172.608 150.112,173.085C150.112,173.341 150.037,173.549 149.886,173.709C149.735,173.869 149.545,173.949 149.317,173.949Z" style="fill:rgb(84,55,41);fill-rule:nonzero;"/>
                    <path d="M155.456,173.731C154.258,173.731 153.288,173.402 152.546,172.745C151.735,172.017 151.329,170.999 151.329,169.69C151.329,168.178 151.663,166.909 152.331,165.885C153.057,164.768 154.027,164.21 155.241,164.21C156.121,164.21 156.84,164.373 157.396,164.698C158.08,165.1 158.422,165.717 158.422,166.549C158.422,167.13 158.122,167.66 157.523,168.137C157.258,168.346 156.696,168.672 155.838,169.114L152.8,170.694C153.097,171.177 153.467,171.54 153.909,171.785C154.352,172.029 154.868,172.151 155.456,172.151C155.822,172.151 156.251,172.075 156.744,171.924C157.37,171.732 157.773,171.481 157.953,171.169C158.133,170.858 158.327,170.702 158.533,170.702C158.719,170.702 158.885,170.78 159.03,170.934C159.176,171.088 159.249,171.267 159.249,171.47C159.249,172.116 158.775,172.672 157.826,173.137C157.015,173.533 156.225,173.731 155.456,173.731ZM155.241,165.781C154.595,165.781 154.056,166.055 153.627,166.605C153.198,167.155 152.877,167.983 152.665,169.088L155.106,167.814C156.066,167.302 156.749,166.857 157.158,166.479C156.702,166.013 156.063,165.781 155.241,165.781Z" style="fill:rgb(84,55,41);fill-rule:nonzero;"/>
                    <path d="M167.988,165.623C167.924,166.479 167.893,167.334 167.893,168.189C167.893,170.126 167.975,171.59 168.139,172.579C168.15,172.66 168.155,172.727 168.155,172.779C168.155,173.012 168.081,173.204 167.932,173.355C167.784,173.507 167.612,173.582 167.416,173.582C167.087,173.582 166.846,173.32 166.692,172.797C166.31,173.105 165.914,173.338 165.503,173.495C165.092,173.652 164.664,173.731 164.219,173.731C163.122,173.731 162.212,173.329 161.491,172.526C160.749,171.706 160.378,170.653 160.378,169.367C160.378,167.814 160.753,166.569 161.503,165.632C162.253,164.696 163.228,164.227 164.426,164.227C165.041,164.227 165.515,164.332 165.849,164.541L166.597,165.144C166.671,162.694 166.758,161.045 166.859,160.195C166.928,159.678 167.169,159.419 167.583,159.419C168.065,159.419 168.306,159.701 168.306,160.265C168.306,161.074 168.2,162.86 167.988,165.623ZM164.457,165.85C163.567,165.85 162.899,166.14 162.454,166.719C162.008,167.298 161.786,168.169 161.786,169.332C161.786,170.083 162.028,170.729 162.513,171.27C162.998,171.811 163.567,172.081 164.219,172.081C164.664,172.081 165.041,171.991 165.348,171.811C165.528,171.706 165.823,171.465 166.231,171.086C166.31,171.011 166.387,170.921 166.461,170.816L166.437,169.306L166.445,168.294L166.461,167.264C166.26,166.793 165.992,166.439 165.658,166.204C165.324,165.968 164.924,165.85 164.457,165.85Z" style="fill:rgb(84,55,41);fill-rule:nonzero;"/>
                    <path d="M177.165,165.545L174.413,172.073C173.735,173.661 173.215,174.99 172.855,176.061L172.33,177.754C172.192,178.173 171.953,178.382 171.614,178.382C171.391,178.382 171.199,178.302 171.038,178.142C170.876,177.982 170.795,177.783 170.795,177.544C170.795,176.962 171.368,175.278 172.513,172.491L169.666,166.479L169.308,165.842C169.165,165.574 169.093,165.35 169.093,165.17C169.093,164.931 169.177,164.722 169.344,164.541C169.511,164.361 169.698,164.271 169.904,164.271C170.148,164.271 170.337,164.373 170.469,164.576C171.37,165.949 172.338,167.904 173.371,170.441L174.548,167.43C174.972,166.389 175.381,165.493 175.773,164.742C175.943,164.416 176.165,164.253 176.441,164.253C176.658,164.253 176.85,164.338 177.017,164.506C177.184,164.675 177.268,164.876 177.268,165.109C177.268,165.237 177.233,165.382 177.165,165.545Z" style="fill:rgb(84,55,41);fill-rule:nonzero;"/>
                </g>
                <g>
                    <path d="M31.0726,195.88C30.0382,195.88 29.1755,195.561 28.4842,194.923C27.7577,194.254 27.3944,193.372 27.3944,192.276C27.3944,191.232 27.735,190.155 28.4161,189.044C29.1729,187.809 30.0256,187.192 30.9742,187.192C31.4686,187.192 32.0211,187.31 32.6316,187.547C33.4036,187.85 33.7896,188.221 33.7896,188.658C33.7896,188.853 33.7265,189.027 33.6004,189.179C33.4742,189.33 33.3178,189.406 33.1311,189.406C32.9848,189.406 32.8574,189.361 32.7489,189.271C32.6404,189.181 32.5358,189.092 32.4348,189.005C32.1372,188.763 31.6503,188.642 30.9742,188.642C30.4595,188.642 29.9499,189.11 29.4454,190.047C28.9863,190.906 28.7567,191.649 28.7567,192.276C28.7567,192.955 28.9837,193.49 29.4378,193.881C29.8616,194.247 30.4066,194.429 31.0726,194.429C31.3753,194.429 31.6982,194.347 32.0413,194.182L32.9192,193.704C33.0706,193.622 33.1791,193.58 33.2446,193.58C33.4313,193.58 33.5928,193.656 33.729,193.808C33.8652,193.96 33.9334,194.133 33.9334,194.329C33.9334,194.704 33.5448,195.067 32.7678,195.417C32.0867,195.725 31.5216,195.88 31.0726,195.88Z" style="fill:rgb(84,55,41);fill-rule:nonzero;"/>
                    <path d="M39.8895,195.401L38.3835,195.401L36.885,195.394C36.5318,195.394 36.2845,195.371 36.1433,195.324C35.886,195.232 35.7573,195.036 35.7573,194.738C35.7573,194.218 36.1534,193.959 36.9455,193.959L37.3088,193.966L37.6191,193.982C37.6191,193.735 37.5976,193.37 37.5547,192.886C37.5119,192.403 37.4904,192.04 37.4904,191.798C37.4904,191.145 37.5484,190.152 37.6645,188.82C37.7755,187.508 37.8285,186.513 37.8234,185.834C37.1473,186.369 36.7159,186.636 36.5293,186.636C36.3274,186.636 36.1521,186.559 36.0033,186.405C35.8544,186.25 35.78,186.073 35.78,185.872C35.78,185.631 35.997,185.337 36.4309,184.993C36.7033,184.797 37.0893,184.484 37.5888,184.051C38.0328,183.594 38.4566,183.365 38.8603,183.365C39.1983,183.365 39.3673,183.563 39.3673,183.959C39.3673,184.077 39.3522,184.253 39.3219,184.487C39.2917,184.721 39.2765,184.898 39.2765,185.016C39.2765,185.186 39.2853,185.443 39.303,185.787C39.3207,186.132 39.3295,186.389 39.3295,186.559C39.3295,187.145 39.2689,188.02 39.1479,189.182C39.0268,190.345 38.9662,191.217 38.9662,191.798C38.9662,192.096 38.9864,192.459 39.0268,192.886C39.0671,193.313 39.0898,193.663 39.0949,193.935L39.8895,193.92C40.1015,193.92 40.2768,193.991 40.4155,194.132C40.5543,194.274 40.6237,194.45 40.6237,194.661C40.6237,194.877 40.5543,195.054 40.4155,195.193C40.2768,195.332 40.1015,195.401 39.8895,195.401Z" style="fill:rgb(84,55,41);fill-rule:nonzero;"/>
                    <path d="M46.8674,195.401L45.3614,195.401L43.8629,195.394C43.5097,195.394 43.2624,195.371 43.1212,195.324C42.8639,195.232 42.7352,195.036 42.7352,194.738C42.7352,194.218 43.1313,193.959 43.9234,193.959L44.2867,193.966L44.597,193.982C44.597,193.735 44.5755,193.37 44.5326,192.886C44.4898,192.403 44.4683,192.04 44.4683,191.798C44.4683,191.145 44.5263,190.152 44.6424,188.82C44.7534,187.508 44.8064,186.513 44.8013,185.834C44.1252,186.369 43.6938,186.636 43.5072,186.636C43.3053,186.636 43.13,186.559 42.9812,186.405C42.8323,186.25 42.7579,186.073 42.7579,185.872C42.7579,185.631 42.9749,185.337 43.4088,184.993C43.6812,184.797 44.0672,184.484 44.5667,184.051C45.0107,183.594 45.4345,183.365 45.8382,183.365C46.1762,183.365 46.3452,183.563 46.3452,183.959C46.3452,184.077 46.3301,184.253 46.2998,184.487C46.2696,184.721 46.2544,184.898 46.2544,185.016C46.2544,185.186 46.2632,185.443 46.2809,185.787C46.2986,186.132 46.3074,186.389 46.3074,186.559C46.3074,187.145 46.2468,188.02 46.1258,189.182C46.0047,190.345 45.9441,191.217 45.9441,191.798C45.9441,192.096 45.9643,192.459 46.0047,192.886C46.045,193.313 46.0677,193.663 46.0728,193.935L46.8674,193.92C47.0794,193.92 47.2547,193.991 47.3934,194.132C47.5322,194.274 47.6016,194.45 47.6016,194.661C47.6016,194.877 47.5322,195.054 47.3934,195.193C47.2547,195.332 47.0794,195.401 46.8674,195.401Z" style="fill:rgb(84,55,41);fill-rule:nonzero;"/>
                    <path d="M55.8131,192.022L55.8131,194.877C55.8131,195.355 55.5835,195.594 55.1244,195.594C54.5895,195.594 54.3221,195.221 54.3221,194.475C54.3221,194.383 54.3272,194.252 54.3373,194.082C54.3474,193.912 54.3524,193.796 54.3524,193.735L54.3448,191.983L51.0073,191.898C50.316,191.898 49.8367,191.875 49.5693,191.829C49.1102,191.752 48.8806,191.569 48.8806,191.281C48.8806,191.05 49.0193,190.756 49.2968,190.402L49.9477,189.615L53.6713,184.075C54.0093,183.596 54.4382,183.357 54.9579,183.357C55.528,183.357 55.8131,183.609 55.8131,184.113L55.8131,190.525C55.8989,190.52 56.0023,190.517 56.1234,190.517C57.0517,190.517 57.5159,190.772 57.5159,191.281C57.5159,191.651 57.3242,191.886 56.9407,191.983C56.7692,192.03 56.3933,192.042 55.8131,192.022ZM54.3448,185.494C52.9977,187.686 51.9457,189.326 51.1889,190.417L54.3448,190.494L54.3448,185.494Z" style="fill:rgb(84,55,41);fill-rule:nonzero;"/>
                    <path d="M66.7113,185.317L66.0226,186.135C65.3667,186.917 64.7638,187.863 64.2138,188.974L62.8364,192.053C62.7405,192.279 62.5286,192.873 62.2007,193.835C61.9383,194.596 61.6936,195.165 61.4665,195.54C61.3253,195.782 61.1234,195.903 60.8611,195.903C60.6593,195.903 60.4814,195.831 60.3275,195.687C60.1736,195.543 60.0967,195.371 60.0967,195.17C60.0967,194.974 60.2581,194.473 60.5811,193.665L62.2839,189.414C63.0357,187.732 63.8076,186.436 64.5998,185.525L64.7436,185.363L60.9443,185.286L59.2415,185.24C58.7521,185.193 58.5074,184.946 58.5074,184.499C58.5074,184.283 58.578,184.105 58.7193,183.967C58.8605,183.828 59.0371,183.758 59.249,183.758C59.8848,183.758 60.8396,183.779 62.1136,183.82C63.3876,183.861 64.3425,183.882 64.9782,183.882L66.3632,183.882C66.898,183.882 67.1654,184.044 67.1654,184.368C67.1654,184.61 67.014,184.926 66.7113,185.317Z" style="fill:rgb(84,55,41);fill-rule:nonzero;"/>
                    <path d="M72.0848,195.81C71.0202,195.81 70.1599,195.574 69.504,195.1C68.7573,194.565 68.3763,193.781 68.3612,192.747C68.341,191.086 68.9137,189.954 70.0792,189.352C69.1811,188.797 68.732,188.007 68.732,186.983C68.732,186.011 69.0776,185.204 69.7689,184.561C70.4298,183.943 71.2321,183.63 72.1756,183.619C74.2947,183.599 75.3542,184.666 75.3542,186.821C75.3542,187.439 75.2331,187.914 74.9909,188.249C74.7942,188.527 74.4132,188.812 73.8481,189.105C74.5999,189.491 75.1272,189.908 75.4299,190.355C75.7831,190.88 75.9597,191.603 75.9597,192.523C75.9597,193.573 75.5787,194.396 74.8169,194.992C74.1105,195.538 73.1998,195.81 72.0848,195.81ZM72.1529,185C71.502,185 71.005,185.188 70.6619,185.564C70.3542,185.914 70.2028,186.387 70.2078,186.983C70.2129,187.704 70.7931,188.215 71.9485,188.519C72.554,188.339 72.9879,188.159 73.2503,187.979C73.669,187.691 73.8784,187.305 73.8784,186.821C73.8784,186.122 73.7245,185.631 73.4168,185.348C73.1544,185.116 72.7331,185 72.1529,185ZM72.0166,189.885C71.2144,190.265 70.6796,190.594 70.4122,190.872C69.9934,191.299 69.7966,191.901 69.8219,192.678C69.842,193.321 70.1321,193.802 70.6922,194.121C71.1009,194.347 71.5651,194.46 72.0848,194.46C72.9728,194.46 73.5933,194.247 73.9465,193.82C74.2291,193.48 74.3704,192.966 74.3704,192.276C74.3704,191.603 74.113,191.06 73.5984,190.648C73.2553,190.366 72.728,190.111 72.0166,189.885Z" style="fill:rgb(84,55,41);fill-rule:nonzero;"/>
                    <path d="M82.8316,194.46C82.4633,194.738 81.873,195.072 81.0607,195.463C80.1575,195.905 79.5294,196.127 79.1762,196.127C78.9693,196.127 78.799,196.05 78.6653,195.895C78.5316,195.741 78.4648,195.561 78.4648,195.355C78.4648,195.052 78.6363,194.823 78.9794,194.668L80.2433,194.229C81.0253,193.905 81.6434,193.532 82.0975,193.11C82.5516,192.688 82.9653,192.089 83.3387,191.312L83.6641,190.648C83.3816,190.813 83.0183,190.965 82.5743,191.104C82.1303,191.243 81.7695,191.312 81.492,191.312C80.5385,191.312 79.7135,191.042 79.0172,190.502C78.1696,189.843 77.7458,188.907 77.7458,187.693C77.7458,186.258 78.1797,185.181 79.0475,184.46C79.7892,183.848 80.763,183.542 81.9688,183.542C82.8972,183.542 83.7297,183.928 84.4664,184.7C85.2434,185.517 85.6344,186.505 85.6394,187.662C85.6445,188.969 85.4073,190.237 84.928,191.466C84.4134,192.793 83.7146,193.791 82.8316,194.46ZM81.7569,184.862C80.9093,184.862 80.2723,185.085 79.846,185.533C79.4196,185.98 79.2039,186.654 79.1989,187.554C79.1989,188.311 79.4587,188.897 79.9784,189.314C80.4375,189.679 81.0153,189.861 81.7115,189.861C82.1152,189.861 82.5365,189.738 82.9754,189.491C83.1772,189.378 83.5405,189.123 84.0652,188.727C84.1308,188.28 84.1636,187.925 84.1636,187.662C84.1586,187.019 83.8924,186.392 83.3652,185.78C82.8379,185.168 82.3018,184.862 81.7569,184.862Z" style="fill:rgb(84,55,41);fill-rule:nonzero;"/>
                    <path d="M95.0921,185.317L94.4034,186.135C93.7475,186.917 93.1446,187.863 92.5946,188.974L91.2172,192.053C91.1213,192.279 90.9094,192.873 90.5815,193.835C90.3191,194.596 90.0744,195.165 89.8474,195.54C89.7061,195.782 89.5043,195.903 89.2419,195.903C89.0401,195.903 88.8622,195.831 88.7083,195.687C88.5545,195.543 88.4775,195.371 88.4775,195.17C88.4775,194.974 88.639,194.473 88.9619,193.665L90.6647,189.414C91.4165,187.732 92.1885,186.436 92.9806,185.525L93.1244,185.363L89.3252,185.286L87.6223,185.24C87.1329,185.193 86.8882,184.946 86.8882,184.499C86.8882,184.283 86.9588,184.105 87.1001,183.967C87.2414,183.828 87.418,183.758 87.6299,183.758C88.2656,183.758 89.2205,183.779 90.4944,183.82C91.7684,183.861 92.7233,183.882 93.359,183.882L94.744,183.882C95.2788,183.882 95.5462,184.044 95.5462,184.368C95.5462,184.61 95.3949,184.926 95.0921,185.317Z" style="fill:rgb(84,55,41);fill-rule:nonzero;"/>
                    <path d="M103.447,195.409C103.321,195.409 103.143,195.369 102.914,195.289C102.684,195.21 102.509,195.17 102.388,195.17C102.131,195.17 101.745,195.185 101.23,195.216C100.715,195.247 100.327,195.262 100.064,195.262C99.8677,195.262 99.5763,195.288 99.1903,195.34C98.8044,195.391 98.513,195.417 98.3162,195.417C98.2607,195.417 98.18,195.407 98.074,195.386C97.9681,195.365 97.8873,195.355 97.8318,195.355C97.4837,195.355 97.2567,195.183 97.1507,194.838C97.0902,194.658 97.0599,194.349 97.0599,193.912C97.0599,192.714 97.3803,191.749 98.021,191.019C98.3137,190.684 99.1033,190.067 100.39,189.167C101.111,188.663 101.593,188.269 101.835,187.986C102.269,187.493 102.486,186.914 102.486,186.25C102.486,185.921 102.277,185.628 101.858,185.371C101.49,185.139 101.129,185.024 100.776,185.024C100.312,185.024 99.8702,185.16 99.4514,185.433L98.3692,186.297C98.1522,186.472 97.9782,186.559 97.847,186.559C97.3273,186.559 97.0674,186.348 97.0674,185.926C97.0674,185.685 97.1633,185.476 97.355,185.301C97.9454,184.736 98.4575,184.327 98.8914,184.075C99.5019,183.72 100.13,183.542 100.776,183.542C101.593,183.542 102.322,183.769 102.963,184.221C103.68,184.73 104.038,185.384 104.038,186.181C104.038,186.706 103.965,187.189 103.818,187.632C103.672,188.074 103.45,188.478 103.152,188.843C102.774,189.306 102.133,189.823 101.23,190.394C100.281,191.001 99.6583,191.461 99.3606,191.775C98.8006,192.366 98.5256,193.084 98.5357,193.928L100.095,193.781C101.164,193.719 101.929,193.688 102.388,193.688C102.771,193.688 103.135,193.755 103.478,193.889C103.932,194.069 104.159,194.319 104.159,194.638C104.159,194.838 104.091,195.017 103.955,195.174C103.818,195.331 103.649,195.409 103.447,195.409Z" style="fill:rgb(84,55,41);fill-rule:nonzero;"/>
                    <path d="M115.163,192.215C114.628,192.215 114.167,192.135 113.778,191.976C113.39,191.816 113.077,191.579 112.84,191.266C112.567,191.538 112.301,191.744 112.041,191.883C111.781,192.022 111.528,192.091 111.281,192.091C110.721,192.091 110.192,191.859 109.695,191.393C109.198,190.927 108.95,190.417 108.95,189.861C108.95,188.91 109.317,188.04 110.051,187.253C110.785,186.466 111.619,186.073 112.552,186.073C112.764,186.073 112.941,186.153 113.082,186.312C113.223,186.472 113.294,186.665 113.294,186.891C113.294,187.199 113.041,187.428 112.537,187.578C111.866,187.773 111.392,187.997 111.114,188.249C110.705,188.614 110.501,189.152 110.501,189.861C110.501,190.011 110.569,190.155 110.705,190.294C110.862,190.448 111.056,190.52 111.288,190.51C111.727,190.489 112.133,190.072 112.507,189.26C112.845,188.55 113.145,188.195 113.407,188.195C113.619,188.195 113.791,188.275 113.922,188.434C114.053,188.593 114.119,188.789 114.119,189.02C114.119,189.123 114.102,189.278 114.069,189.483C114.037,189.689 114.02,189.843 114.02,189.946C114.02,190.281 114.162,190.492 114.444,190.579C114.555,190.615 114.795,190.633 115.163,190.633C115.854,190.633 116.339,190.461 116.616,190.116C116.868,189.807 116.995,189.296 116.995,188.581C116.995,187.32 116.498,186.292 115.504,185.494C114.595,184.764 113.511,184.399 112.249,184.399C110.781,184.399 109.631,184.964 108.798,186.096C108.046,187.104 107.671,188.372 107.671,189.9C107.671,191.309 108.112,192.498 108.995,193.465C109.913,194.473 111.094,194.977 112.537,194.977C112.946,194.977 113.407,194.897 113.922,194.738L115.246,194.236C115.468,194.154 115.612,194.113 115.678,194.113C115.885,194.113 116.064,194.196 116.215,194.364C116.366,194.531 116.442,194.725 116.442,194.946C116.442,195.435 115.905,195.831 114.83,196.134C114.018,196.361 113.258,196.474 112.552,196.474C111.841,196.474 111.113,196.334 110.369,196.053C109.624,195.773 108.987,195.399 108.458,194.931C106.894,193.552 106.111,191.875 106.111,189.9C106.111,187.925 106.646,186.274 107.716,184.946C108.851,183.527 110.362,182.817 112.249,182.817C113.955,182.817 115.415,183.339 116.631,184.383C117.908,185.489 118.546,186.888 118.546,188.581C118.546,189.738 118.269,190.628 117.714,191.25C117.133,191.893 116.283,192.215 115.163,192.215Z" style="fill:rgb(84,55,41);fill-rule:nonzero;"/>
                    <path d="M130.375,196.034C129.961,196.034 129.719,195.81 129.649,195.363C129.558,194.797 129.467,194 129.376,192.971L129.119,190.579C129.068,190.224 128.983,189.877 128.862,189.537C128.69,189.074 128.503,188.843 128.301,188.843C128.115,188.843 127.767,189.005 127.257,189.329C126.773,189.627 126.455,189.867 126.303,190.047C126.298,190.53 126.311,191.014 126.341,191.497L126.568,193.557C126.664,194.37 126.712,195.041 126.712,195.571C126.712,195.797 126.643,195.984 126.504,196.131C126.365,196.277 126.187,196.35 125.97,196.35C125.754,196.35 125.576,196.277 125.437,196.131C125.298,195.984 125.229,195.797 125.229,195.571C125.229,194.949 125.167,194.029 125.043,192.813C124.92,191.596 124.858,190.677 124.858,190.054C124.858,189.509 124.782,189.085 124.631,188.781C124.278,188.946 123.919,189.213 123.556,189.584L122.663,190.602C122.582,190.726 122.454,190.888 122.277,191.088C122.277,191.397 122.249,191.852 122.194,192.454C122.138,193.056 122.111,193.501 122.111,193.789C122.111,193.943 122.135,194.159 122.183,194.437C122.231,194.715 122.254,194.915 122.254,195.039C122.254,195.25 122.178,195.427 122.024,195.571C121.87,195.715 121.689,195.787 121.483,195.787C120.912,195.787 120.627,195.126 120.627,193.804C120.627,193.496 120.655,193.035 120.711,192.423C120.766,191.811 120.794,191.351 120.794,191.042C120.794,190.769 120.77,190.36 120.722,189.815C120.674,189.27 120.65,188.858 120.65,188.581C120.65,187.413 120.907,186.829 121.422,186.829C121.619,186.829 121.799,186.917 121.963,187.091C122.127,187.266 122.209,187.457 122.209,187.662C122.209,187.76 122.196,187.912 122.171,188.118C122.146,188.323 122.133,188.48 122.133,188.588L122.149,189.398C122.411,188.848 122.797,188.35 123.306,187.905C123.816,187.461 124.25,187.238 124.608,187.238C125.4,187.238 125.945,187.639 126.243,188.442C126.52,188.066 126.851,187.785 127.234,187.597C127.618,187.409 128.057,187.315 128.551,187.315C129.394,187.315 129.969,187.778 130.277,188.704C130.337,188.889 130.441,189.612 130.587,190.872C130.728,191.757 130.91,193.231 131.132,195.293C131.147,195.499 131.079,195.674 130.928,195.818C130.776,195.962 130.592,196.034 130.375,196.034Z" style="fill:rgb(84,55,41);fill-rule:nonzero;"/>
                    <path d="M139.404,188.511L136.785,194.283C136.14,195.687 135.645,196.862 135.302,197.809L134.803,199.306C134.671,199.676 134.444,199.861 134.121,199.861C133.91,199.861 133.727,199.79 133.573,199.649C133.419,199.507 133.342,199.331 133.342,199.12C133.342,198.606 133.887,197.117 134.977,194.653L132.267,189.337L131.927,188.774C131.79,188.537 131.722,188.339 131.722,188.179C131.722,187.968 131.802,187.783 131.961,187.624C132.12,187.464 132.298,187.385 132.494,187.385C132.726,187.385 132.905,187.475 133.032,187.655C133.889,188.869 134.81,190.597 135.794,192.84L136.914,190.178C137.318,189.257 137.706,188.465 138.08,187.801C138.241,187.513 138.453,187.369 138.715,187.369C138.922,187.369 139.105,187.444 139.264,187.593C139.423,187.742 139.502,187.92 139.502,188.125C139.502,188.239 139.47,188.367 139.404,188.511Z" style="fill:rgb(84,55,41);fill-rule:nonzero;"/>
                    <path d="M147.843,188.581C147.782,189.337 147.752,190.093 147.752,190.849C147.752,192.562 147.83,193.856 147.986,194.73C147.997,194.802 148.002,194.861 148.002,194.908C148.002,195.113 147.931,195.283 147.79,195.417C147.648,195.551 147.484,195.617 147.298,195.617C146.985,195.617 146.755,195.386 146.609,194.923C146.246,195.196 145.869,195.401 145.478,195.54C145.087,195.679 144.679,195.749 144.255,195.749C143.211,195.749 142.346,195.394 141.659,194.684C140.953,193.959 140.6,193.027 140.6,191.891C140.6,190.517 140.957,189.416 141.671,188.588C142.385,187.76 143.312,187.346 144.452,187.346C145.037,187.346 145.489,187.439 145.807,187.624L146.518,188.156C146.589,185.991 146.672,184.532 146.768,183.781C146.834,183.324 147.063,183.095 147.457,183.095C147.916,183.095 148.145,183.344 148.145,183.843C148.145,184.558 148.044,186.137 147.843,188.581ZM144.482,188.781C143.635,188.781 142.999,189.037 142.575,189.549C142.151,190.061 141.939,190.831 141.939,191.86C141.939,192.523 142.17,193.094 142.632,193.573C143.094,194.051 143.635,194.29 144.255,194.29C144.679,194.29 145.037,194.211 145.33,194.051C145.502,193.959 145.782,193.745 146.17,193.411C146.246,193.344 146.319,193.264 146.39,193.172L146.367,191.837L146.374,190.942L146.39,190.031C146.198,189.615 145.943,189.302 145.625,189.094C145.307,188.885 144.926,188.781 144.482,188.781Z" style="fill:rgb(84,55,41);fill-rule:nonzero;"/>
                    <path d="M151.422,185.625C151.18,185.625 150.971,185.538 150.794,185.363C150.618,185.188 150.529,184.977 150.529,184.73C150.529,184.484 150.618,184.273 150.794,184.098C150.971,183.923 151.18,183.835 151.422,183.835C151.665,183.835 151.873,183.923 152.047,184.098C152.221,184.273 152.308,184.484 152.308,184.73C152.308,184.977 152.221,185.188 152.047,185.363C151.873,185.538 151.665,185.625 151.422,185.625ZM151.763,191.891C151.763,192.199 151.772,192.661 151.789,193.276C151.807,193.89 151.816,194.352 151.816,194.661C151.816,194.887 151.748,195.072 151.612,195.216C151.475,195.36 151.296,195.432 151.074,195.432C150.857,195.432 150.679,195.36 150.541,195.216C150.402,195.072 150.333,194.887 150.333,194.661C150.333,194.352 150.324,193.89 150.306,193.276C150.288,192.661 150.28,192.199 150.28,191.891C150.28,191.407 150.305,190.804 150.355,190.081C150.406,189.359 150.431,188.755 150.431,188.272C150.431,188.04 150.5,187.853 150.639,187.709C150.778,187.565 150.956,187.493 151.173,187.493C151.39,187.493 151.567,187.565 151.706,187.709C151.845,187.853 151.914,188.04 151.914,188.272C151.914,188.755 151.889,189.359 151.839,190.081C151.788,190.804 151.763,191.407 151.763,191.891Z" style="fill:rgb(84,55,41);fill-rule:nonzero;"/>
                    <path d="M159.384,188.82C159.278,188.82 159.153,188.815 159.01,188.804C158.866,188.794 158.741,188.789 158.635,188.789C158.519,188.789 158.176,188.828 157.606,188.905L157.749,193.465L157.757,193.804L157.765,194.198C157.785,195.324 157.52,195.887 156.97,195.887C156.768,195.887 156.593,195.821 156.444,195.687C156.295,195.553 156.221,195.386 156.221,195.185C156.221,194.99 156.228,194.697 156.243,194.306C156.258,193.915 156.266,193.622 156.266,193.426L156.115,188.92C155.746,188.905 155.186,188.861 154.435,188.789C153.986,188.727 153.761,188.473 153.761,188.025C153.761,187.799 153.829,187.611 153.965,187.462C154.102,187.313 154.276,187.238 154.488,187.238L156.077,187.369C156.077,187.107 156.066,186.756 156.043,186.316C156.02,185.876 156.009,185.559 156.009,185.363C156.009,185.147 156.082,184.968 156.228,184.827C156.375,184.685 156.554,184.615 156.766,184.615C157.22,184.615 157.485,184.993 157.56,185.749C157.575,185.939 157.583,186.168 157.583,186.436L157.568,186.883L157.56,187.362C158.186,187.279 158.544,187.238 158.635,187.238C159.16,187.238 159.503,187.264 159.664,187.315C159.972,187.418 160.126,187.66 160.126,188.04C160.126,188.267 160.056,188.453 159.918,188.6C159.779,188.746 159.601,188.82 159.384,188.82Z" style="fill:rgb(84,55,41);fill-rule:nonzero;"/>
                    <path d="M162.593,196.111C162.331,196.111 162.109,196.019 161.927,195.833C161.745,195.648 161.655,195.422 161.655,195.154C161.655,194.892 161.745,194.667 161.927,194.479C162.109,194.292 162.331,194.198 162.593,194.198C162.85,194.198 163.071,194.292 163.255,194.479C163.439,194.667 163.532,194.892 163.532,195.154C163.532,195.422 163.439,195.648 163.255,195.833C163.071,196.019 162.85,196.111 162.593,196.111Z" style="fill:rgb(84,55,41);fill-rule:nonzero;"/>
                    <path d="M166.93,185.625C166.688,185.625 166.478,185.538 166.302,185.363C166.125,185.188 166.037,184.977 166.037,184.73C166.037,184.484 166.125,184.273 166.302,184.098C166.478,183.923 166.688,183.835 166.93,183.835C167.172,183.835 167.38,183.923 167.554,184.098C167.728,184.273 167.815,184.484 167.815,184.73C167.815,184.977 167.728,185.188 167.554,185.363C167.38,185.538 167.172,185.625 166.93,185.625ZM167.27,191.891C167.27,192.199 167.279,192.661 167.297,193.276C167.314,193.89 167.323,194.352 167.323,194.661C167.323,194.887 167.255,195.072 167.119,195.216C166.983,195.36 166.804,195.432 166.582,195.432C166.365,195.432 166.187,195.36 166.048,195.216C165.909,195.072 165.84,194.887 165.84,194.661C165.84,194.352 165.831,193.89 165.813,193.276C165.796,192.661 165.787,192.199 165.787,191.891C165.787,191.407 165.812,190.804 165.863,190.081C165.913,189.359 165.938,188.755 165.938,188.272C165.938,188.04 166.008,187.853 166.146,187.709C166.285,187.565 166.463,187.493 166.68,187.493C166.897,187.493 167.075,187.565 167.213,187.709C167.352,187.853 167.422,188.04 167.422,188.272C167.422,188.755 167.396,189.359 167.346,190.081C167.295,190.804 167.27,191.407 167.27,191.891Z" style="fill:rgb(84,55,41);fill-rule:nonzero;"/>
                    <path d="M173.363,195.749C172.222,195.749 171.299,195.458 170.593,194.877C169.821,194.234 169.435,193.334 169.435,192.176C169.435,190.839 169.753,189.717 170.388,188.812C171.08,187.824 172.003,187.331 173.158,187.331C173.996,187.331 174.68,187.475 175.209,187.763C175.86,188.118 176.186,188.663 176.186,189.398C176.186,189.913 175.901,190.381 175.33,190.803C175.078,190.988 174.543,191.276 173.726,191.667L170.835,193.063C171.117,193.49 171.469,193.812 171.891,194.028C172.312,194.244 172.803,194.352 173.363,194.352C173.711,194.352 174.119,194.285 174.589,194.151C175.184,193.982 175.568,193.759 175.739,193.484C175.911,193.209 176.095,193.071 176.292,193.071C176.468,193.071 176.626,193.139 176.765,193.276C176.903,193.412 176.973,193.57 176.973,193.75C176.973,194.321 176.521,194.812 175.618,195.224C174.846,195.574 174.094,195.749 173.363,195.749ZM173.158,188.719C172.543,188.719 172.031,188.963 171.622,189.449C171.213,189.935 170.908,190.666 170.706,191.644L173.03,190.517C173.943,190.065 174.594,189.671 174.982,189.337C174.548,188.925 173.94,188.719 173.158,188.719Z" style="fill:rgb(84,55,41);fill-rule:nonzero;"/>
                </g>
            </g>
        </g>
    </g>
</svg>
