<?xml version="1.0" standalone="no"?>
<!DOCTYPE svg PUBLIC "-//W3C//DTD SVG 1.1//EN" "http://www.w3.org/Graphics/SVG/1.1/DTD/svg11.dtd">
<svg width="2560px" height="1600px" version="1.1" xmlns="http://www.w3.org/2000/svg" xmlns:xlink="http://www.w3.org/1999/xlink" xml:space="preserve" style="fill-rule:evenodd;clip-rule:evenodd;stroke-linejoin:round;stroke-miterlimit:1.41421;">
    <g>
        <g id="Layer1">
            <g>
                <g id="Arrow">
                    <g>
                        <path d="M364.111,483.839C458.445,346.612 624.557,351.033 652.303,456.429L621.768,497.681C561.135,408.395 480.547,414.161 408.15,510.453L364.111,483.839Z" style="fill:rgb(255,204,47);"/>
                    </g>
                    <g>
                        <path d="M661.942,522.37C625.082,506.458 579.065,492.68 523.889,481.035L675.967,378.945C662.968,437.013 655.915,487.752 661.942,522.37Z" style="fill:rgb(43,175,43);"/>
                    </g>
                </g>
                <g id="Arrow1">
                    <g>
                        <path d="M721.39,564.387C771.857,723.08 666.433,851.527 566.188,808.761L552.353,759.337C660.059,766.25 704.958,699.081 673.352,582.829L721.39,564.387Z" style="fill:rgb(255,204,47);"/>
                    </g>
                    <g>
                        <path d="M508.207,775.908C543.389,756.568 582.506,728.688 625.559,692.267L612.847,874.992C574.974,829.096 539.239,792.392 508.207,775.908Z" style="fill:rgb(0,172,238);"/>
                    </g>
                </g>
                <g id="Arrow2">
                    <g>
                        <path d="M481.561,805.096C315.043,806.596 223.334,668.024 293.723,584.816L345.03,586.148C306.708,687.043 357.677,749.73 478.082,753.758L481.561,805.096Z" style="fill:rgb(255,204,47);"/>
                    </g>
                    <g>
                        <path d="M342.193,539.08C350.315,578.397 365.441,623.989 387.569,675.858L216.689,609.904C271.702,587.225 317.302,563.882 342.193,539.08Z" style="fill:rgb(239,87,52);"/>
                    </g>
                </g>
                <g>
                    <path d="M389.173,648.887C389.119,646.627 389.886,644.783 391.474,643.357C393.062,641.93 395.013,641.217 397.328,641.217C399.965,641.217 402.28,642.724 404.272,645.738C407.017,649.829 409.466,652.601 411.619,654.055C416.194,657.069 422.842,658.576 431.562,658.576C439.905,658.576 447.656,656.773 454.815,653.167C463.966,648.537 468.541,642.105 468.541,633.87C468.541,627.087 464.693,621.732 456.995,617.802C450.482,614.411 442.435,612.581 432.854,612.312C424.349,611.989 417.109,610.132 411.135,606.741C403.491,602.381 399.669,596.137 399.669,588.009C399.669,578.428 405.106,569.681 415.979,561.768C426.368,554.286 437.106,550.545 448.194,550.545C453.416,550.545 459.31,551.433 465.877,553.21C474.597,555.524 478.957,558.485 478.957,562.091C478.957,566.828 476.534,569.196 471.69,569.196C469.537,569.196 465.769,568.618 460.386,567.46C455.004,566.303 450.832,565.751 447.872,565.805C439.474,565.913 432.342,567.985 426.475,572.022C420.447,576.167 417.432,581.2 417.432,587.121C417.432,591.588 421.415,594.737 429.382,596.567C432.342,597.267 438.075,597.913 446.58,598.505C458.906,599.42 468.541,603.296 475.485,610.132C481.836,616.376 485.012,623.992 485.012,632.981C485.012,645.792 479.091,656.019 467.249,663.663C456.968,670.284 445.046,673.594 431.481,673.594C421.631,673.594 412.615,671.71 404.433,667.942C394.421,663.313 389.335,656.961 389.173,648.887Z" style="fill:rgb(84,55,41);fill-rule:nonzero;"/>
                    <path d="M526.352,621.597C524.844,621.597 521.561,621.247 516.501,620.547C516.071,628.675 515.855,642.913 515.855,663.259C515.855,665.412 515.155,667.229 513.756,668.709C512.356,670.189 510.607,670.93 508.508,670.93C506.355,670.93 504.578,670.189 503.179,668.709C501.779,667.229 501.08,665.412 501.08,663.259L501.08,639.521C501.08,631.609 501.564,620.467 502.533,606.095C503.61,590.539 504.202,579.397 504.309,572.668L504.309,561.526C504.309,556.197 504.632,552.321 505.278,549.899C506.516,545.162 509.154,543.117 513.191,543.763C514.913,543.225 517.362,542.821 520.538,542.552C523.714,542.283 527.616,542.148 532.246,542.148C542.096,542.148 551.327,545.512 559.94,552.241C569.413,559.669 574.15,568.604 574.15,579.047C574.15,592.396 569.09,603.027 558.971,610.939C549.928,618.044 539.055,621.597 526.352,621.597ZM530.389,557.489C528.02,557.489 525.907,557.543 524.05,557.65C522.193,557.758 520.619,557.919 519.327,558.135L519.166,572.991L517.47,605.126L526.352,606.176C535.394,606.176 543.011,603.888 549.201,599.313C555.983,594.307 559.374,587.551 559.374,579.047C559.374,573.018 556.145,567.824 549.686,563.464C543.711,559.48 537.278,557.489 530.389,557.489Z" style="fill:rgb(84,55,41);fill-rule:nonzero;"/>
                    <path d="M656.344,568.389C652.899,568.389 648.566,568.039 643.345,567.339L630.346,565.644C629.108,581.307 628.489,596.271 628.489,610.536C628.489,614.303 628.596,618.959 628.811,624.504C629.027,630.048 629.134,634.704 629.134,638.472C629.134,643.532 628.946,648.134 628.569,652.278L654.003,651.956C656.263,651.956 658.161,652.749 659.695,654.337C661.229,655.925 661.996,657.877 661.996,660.191C661.996,662.559 661.229,664.538 659.695,666.126C658.161,667.713 656.263,668.507 654.003,668.507C650.988,668.507 646.467,668.575 640.438,668.709C634.41,668.844 629.888,668.911 626.874,668.911C623.321,668.911 618.006,669.409 610.927,670.405C603.849,671.401 598.507,671.898 594.9,671.898C592.64,671.898 590.742,671.105 589.208,669.517C587.674,667.929 586.907,665.977 586.907,663.663C586.907,661.348 587.674,659.384 589.208,657.769C590.742,656.154 592.64,655.347 594.9,655.347C598.399,655.347 604.186,654.781 612.26,653.651C612.798,649.291 613.067,644.312 613.067,638.714C613.067,635 612.892,630.465 612.542,625.109C612.192,619.753 612.017,615.245 612.017,611.585C612.017,599.151 612.771,583.622 614.278,564.998L603.782,565.321L593.286,565.563C590.971,565.563 589.033,564.782 587.472,563.221C585.911,561.66 585.131,559.669 585.131,557.247C585.131,552.241 587.661,549.496 592.72,549.011C597.08,548.58 605.235,548.365 617.185,548.365C627.896,548.365 641.326,549.522 657.474,551.837C662.265,552.537 664.66,555.417 664.66,560.476C664.66,563.006 663.745,565.025 661.915,566.532C660.3,567.77 658.443,568.389 656.344,568.389Z" style="fill:rgb(84,55,41);fill-rule:nonzero;"/>
                </g>
                <g>
                    <path d="M268.793,901.994C268.777,901.247 269.012,900.638 269.499,900.167C269.987,899.696 270.585,899.46 271.296,899.46C272.105,899.46 272.815,899.958 273.426,900.954C274.269,902.305 275.02,903.221 275.681,903.701C277.085,904.696 279.124,905.194 281.8,905.194C284.36,905.194 286.738,904.598 288.935,903.407C291.743,901.878 293.147,899.754 293.147,897.033C293.147,894.793 291.966,893.024 289.604,891.726C287.605,890.606 285.136,890.002 282.196,889.913C279.587,889.806 277.365,889.193 275.532,888.073C273.187,886.633 272.014,884.57 272.014,881.886C272.014,878.721 273.682,875.832 277.019,873.218C280.206,870.747 283.501,869.511 286.904,869.511C288.506,869.511 290.314,869.805 292.329,870.391C295.005,871.156 296.343,872.134 296.343,873.325C296.343,874.89 295.599,875.672 294.113,875.672C293.452,875.672 292.296,875.481 290.644,875.098C288.993,874.716 287.713,874.534 286.804,874.552C284.228,874.587 282.039,875.272 280.239,876.605C278.389,877.974 277.464,879.637 277.464,881.592C277.464,883.068 278.687,884.108 281.131,884.712C282.039,884.944 283.798,885.157 286.408,885.353C290.19,885.655 293.147,886.935 295.277,889.193C297.226,891.255 298.201,893.771 298.201,896.74C298.201,900.972 296.384,904.35 292.75,906.874C289.596,909.061 285.937,910.154 281.775,910.154C278.753,910.154 275.986,909.532 273.476,908.288C270.404,906.759 268.843,904.661 268.793,901.994Z" style="fill:rgb(84,55,41);fill-rule:nonzero;"/>
                    <path d="M320.671,885.913C320.324,885.913 319.916,885.895 319.445,885.859C318.974,885.824 318.565,885.806 318.218,885.806C317.839,885.806 316.715,885.939 314.849,886.206L315.32,901.967L315.345,903.141L315.369,904.501C315.435,908.394 314.568,910.341 312.768,910.341C312.107,910.341 311.533,910.11 311.046,909.648C310.559,909.186 310.315,908.608 310.315,907.914C310.315,907.239 310.34,906.225 310.39,904.874C310.439,903.523 310.464,902.509 310.464,901.834L309.969,886.259C308.763,886.206 306.93,886.055 304.469,885.806C302.999,885.593 302.264,884.712 302.264,883.166C302.264,882.383 302.487,881.734 302.933,881.219C303.379,880.703 303.948,880.445 304.642,880.445L309.845,880.899C309.845,879.992 309.808,878.779 309.733,877.259C309.659,875.738 309.622,874.641 309.622,873.965C309.622,873.218 309.861,872.6 310.34,872.112C310.819,871.623 311.405,871.378 312.099,871.378C313.586,871.378 314.453,872.685 314.701,875.298C314.75,875.956 314.775,876.747 314.775,877.672L314.725,879.219L314.701,880.872C316.749,880.588 317.921,880.445 318.218,880.445C319.936,880.445 321.059,880.534 321.588,880.712C322.595,881.068 323.099,881.903 323.099,883.219C323.099,884.001 322.872,884.646 322.418,885.153C321.964,885.659 321.381,885.913 320.671,885.913Z" style="fill:rgb(84,55,41);fill-rule:nonzero;"/>
                    <path d="M339.574,909.861C335.841,909.861 332.819,908.857 330.507,906.848C327.98,904.625 326.716,901.514 326.716,897.513C326.716,892.891 327.757,889.015 329.838,885.886C332.1,882.472 335.123,880.766 338.905,880.766C341.647,880.766 343.885,881.263 345.619,882.259C347.75,883.486 348.815,885.37 348.815,887.913C348.815,889.691 347.882,891.309 346.015,892.766C345.19,893.407 343.439,894.402 340.763,895.753L331.299,900.58C332.224,902.056 333.376,903.167 334.755,903.914C336.135,904.661 337.741,905.034 339.574,905.034C340.714,905.034 342.052,904.803 343.588,904.341C345.536,903.754 346.792,902.985 347.353,902.034C347.915,901.083 348.518,900.607 349.162,900.607C349.74,900.607 350.256,900.843 350.71,901.314C351.164,901.785 351.392,902.332 351.392,902.954C351.392,904.927 349.913,906.625 346.957,908.048C344.43,909.257 341.969,909.861 339.574,909.861ZM338.905,885.566C336.89,885.566 335.214,886.406 333.876,888.086C332.538,889.766 331.539,892.295 330.878,895.673L338.484,891.78C341.473,890.215 343.604,888.855 344.876,887.699C343.455,886.277 341.465,885.566 338.905,885.566Z" style="fill:rgb(84,55,41);fill-rule:nonzero;"/>
                    <path d="M366.331,909.568C364.679,909.568 362.862,909.283 360.88,908.714L360.831,921.462C360.831,922.244 360.603,922.884 360.149,923.382C359.695,923.88 359.113,924.129 358.403,924.129C357.692,924.129 357.11,923.88 356.656,923.382C356.202,922.884 355.975,922.244 355.975,921.462L356.049,910.795L356.049,900.154C356,896.26 355.876,892.713 355.677,889.513L355.306,884.099C355.306,882.837 355.521,881.77 355.95,880.899C356.446,879.85 357.164,879.325 358.105,879.325C358.75,879.325 359.29,879.57 359.728,880.059C360.166,880.548 360.385,881.148 360.385,881.859C360.385,882.019 360.36,882.312 360.31,882.739C360.228,883.29 360.17,883.797 360.137,884.259C361.557,883.21 362.928,882.423 364.249,881.899C365.571,881.374 366.834,881.112 368.04,881.112C371.426,881.112 373.903,882.73 375.472,885.966C376.711,888.526 377.33,891.913 377.33,896.127C377.33,899.967 376.372,903.132 374.457,905.621C372.425,908.252 369.716,909.568 366.331,909.568ZM368.04,886.446C366.52,886.446 365.15,886.81 363.927,887.539C363.052,888.055 361.945,888.997 360.608,890.366C360.822,894.402 360.93,898.642 360.93,903.087C362.73,903.834 364.53,904.207 366.331,904.207C368.395,904.207 369.972,903.381 371.062,901.727C372.004,900.287 372.475,898.42 372.475,896.127C372.475,892.891 372.107,890.468 371.372,888.859C370.637,887.25 369.526,886.446 368.04,886.446Z" style="fill:rgb(84,55,41);fill-rule:nonzero;"/>
                    <path d="M403.666,910.288C402.493,910.288 401.725,909.612 401.362,908.261C400.982,906.803 400.635,904.732 400.321,902.047C400.024,899.469 399.875,897.353 399.875,895.7C399.875,895.238 399.896,894.535 399.937,893.593C399.978,892.651 399.999,891.949 399.999,891.486C399.999,888.144 399.223,886.473 397.67,886.473C395.573,886.473 393.698,887.495 392.046,889.54C391.204,890.589 390.048,892.589 388.578,895.54C388.578,902.314 388.314,906.323 387.785,907.568C387.323,908.67 386.604,909.221 385.63,909.221C384.953,909.221 384.358,908.972 383.846,908.474C383.334,907.977 383.078,907.372 383.078,906.661C383.078,906.412 383.152,906.021 383.301,905.487C383.433,905.043 383.524,903.745 383.574,901.594L383.648,897.647L383.722,878.045C383.838,875.841 383.896,874.356 383.896,873.592C383.896,872.685 383.817,871.827 383.66,871.018C383.503,870.209 383.425,869.369 383.425,868.498C383.425,867.751 383.664,867.133 384.143,866.644C384.622,866.155 385.209,865.911 385.902,865.911C387.257,865.911 388.049,866.693 388.281,868.258C388.545,869.982 388.677,871.538 388.677,872.925C388.677,874.792 388.619,876.739 388.504,878.765C388.405,880.703 388.363,882.65 388.38,884.606L388.405,886.953C389.759,884.997 391.208,883.535 392.753,882.566C394.297,881.597 395.936,881.112 397.67,881.112C400.412,881.112 402.295,882.072 403.319,883.992C404.046,885.344 404.458,887.619 404.558,890.82L404.756,895.913L405.251,901.46C405.482,903.541 405.763,905.372 406.094,906.954C406.16,907.256 406.193,907.514 406.193,907.728C406.193,908.457 405.945,909.066 405.449,909.554C404.954,910.043 404.359,910.288 403.666,910.288Z" style="fill:rgb(84,55,41);fill-rule:nonzero;"/>
                    <path d="M423.807,909.861C420.075,909.861 417.052,908.857 414.74,906.848C412.213,904.625 410.949,901.514 410.949,897.513C410.949,892.891 411.99,889.015 414.071,885.886C416.334,882.472 419.356,880.766 423.138,880.766C425.88,880.766 428.118,881.263 429.852,882.259C431.983,883.486 433.048,885.37 433.048,887.913C433.048,889.691 432.115,891.309 430.249,892.766C429.423,893.407 427.672,894.402 424.997,895.753L415.533,900.58C416.458,902.056 417.61,903.167 418.989,903.914C420.368,904.661 421.974,905.034 423.807,905.034C424.947,905.034 426.285,904.803 427.821,904.341C429.77,903.754 431.025,902.985 431.587,902.034C432.148,901.083 432.751,900.607 433.395,900.607C433.973,900.607 434.489,900.843 434.943,901.314C435.398,901.785 435.625,902.332 435.625,902.954C435.625,904.927 434.147,906.625 431.19,908.048C428.663,909.257 426.202,909.861 423.807,909.861ZM423.138,885.566C421.123,885.566 419.447,886.406 418.109,888.086C416.771,889.766 415.772,892.295 415.111,895.673L422.717,891.78C425.707,890.215 427.837,888.855 429.109,887.699C427.689,886.277 425.698,885.566 423.138,885.566Z" style="fill:rgb(84,55,41);fill-rule:nonzero;"/>
                    <path d="M459.037,910.528C457.616,910.528 456.815,909.692 456.634,908.021L455.94,902.181C455.709,900.1 455.593,898.154 455.593,896.34C455.593,895.842 455.622,894.998 455.68,893.807C455.738,892.615 455.766,891.771 455.766,891.273C455.766,887.433 455.106,885.513 453.784,885.513C451.935,885.513 450.167,886.695 448.483,889.059C446.963,891.211 445.774,893.931 444.915,897.22C444.882,897.914 444.808,898.785 444.692,899.834C444.593,900.723 444.544,901.585 444.544,902.421C444.544,902.954 444.593,903.754 444.692,904.821C444.791,905.887 444.841,906.688 444.841,907.221C444.841,908.021 444.614,908.67 444.16,909.168C443.705,909.666 443.123,909.914 442.413,909.914C441.686,909.914 441.1,909.666 440.654,909.168C440.208,908.67 439.985,908.021 439.985,907.221C439.985,906.688 439.931,905.887 439.824,904.821C439.717,903.754 439.663,902.954 439.663,902.421C439.663,900.589 439.783,898.051 440.022,894.807C440.262,891.562 440.381,889.024 440.381,887.193C440.381,886.624 440.353,885.779 440.295,884.659C440.237,883.539 440.208,882.695 440.208,882.126C440.208,881.361 440.443,880.734 440.914,880.245C441.385,879.757 441.967,879.512 442.661,879.512C444.18,879.512 445.014,880.668 445.163,882.979L445.237,886.099C448.012,882.117 450.861,880.125 453.784,880.125C456.427,880.125 458.269,881.379 459.309,883.886C460.019,885.557 460.408,888.028 460.474,891.3L460.474,893.993L460.449,896.473C460.449,897.949 460.626,899.856 460.981,902.194C461.337,904.532 461.514,906.43 461.514,907.888C461.514,908.67 461.279,909.306 460.808,909.794C460.337,910.283 459.747,910.528 459.037,910.528Z" style="fill:rgb(84,55,41);fill-rule:nonzero;"/>
                    <path d="M498.18,910.261C493.523,910.261 489.575,908.759 486.338,905.754C482.903,902.554 481.185,898.429 481.185,893.38C481.185,887.228 482.878,881.637 486.264,876.605C490.046,871.023 494.761,868.231 500.41,868.231C505.844,868.231 509.882,869.547 512.525,872.178C515.283,874.916 516.662,879.237 516.662,885.139C516.662,891.291 515.11,896.838 512.005,901.78C508.437,907.434 503.829,910.261 498.18,910.261ZM500.41,873.698C496.364,873.698 492.936,875.867 490.129,880.205C487.536,884.188 486.239,888.579 486.239,893.38C486.239,896.811 487.42,899.603 489.782,901.754C492.045,903.781 494.844,904.794 498.18,904.794C502.194,904.794 505.505,902.616 508.115,898.26C510.444,894.367 511.608,889.993 511.608,885.139C511.608,880.89 510.724,877.903 508.957,876.178C507.273,874.525 504.424,873.698 500.41,873.698Z" style="fill:rgb(84,55,41);fill-rule:nonzero;"/>
                    <path d="M530.263,870.071C530.263,870.605 530.305,871.396 530.387,872.445C530.47,873.494 530.511,874.285 530.511,874.818C530.511,877.094 529.768,878.232 528.281,878.232C527.257,878.232 526.605,877.841 526.324,877.059C526.192,876.65 526.126,875.805 526.126,874.525C526.126,874.027 526.081,873.285 525.99,872.298C525.899,871.311 525.853,870.569 525.853,870.071C525.853,868.293 525.92,867.093 526.052,866.471C526.382,865.067 527.109,864.364 528.232,864.364C528.859,864.364 529.388,864.582 529.817,865.018C530.247,865.453 530.461,866.009 530.461,866.684C530.461,867.058 530.428,867.622 530.362,868.378C530.296,869.133 530.263,869.698 530.263,870.071Z" style="fill:rgb(84,55,41);fill-rule:nonzero;"/>
                    <path d="M567.078,909.728C564.568,909.728 560.992,907.354 556.351,902.607L548.943,894.58L548.943,894.953L548.918,908.928C548.918,910.688 548.2,911.568 546.763,911.568C545.822,911.568 545.07,911.123 544.509,910.234C544.046,909.506 543.815,908.714 543.815,907.861C543.815,903.701 543.931,897.478 544.162,889.193C544.393,880.908 544.509,874.694 544.509,870.551C544.509,869.787 544.744,869.138 545.215,868.605C545.685,868.071 546.268,867.805 546.961,867.805C547.672,867.805 548.262,868.071 548.733,868.605C549.203,869.138 549.439,869.787 549.439,870.551C549.439,872.276 549.34,874.961 549.141,878.605C548.943,882.126 548.852,884.819 548.869,886.686C551.082,884.428 553.584,881.592 556.376,878.179L563.486,869.298C564.047,868.605 564.675,868.258 565.369,868.258C566.029,868.258 566.616,868.525 567.128,869.058C567.64,869.591 567.896,870.24 567.896,871.005C567.896,872.178 565.765,875.307 561.504,880.392C558.564,883.859 555.525,887.255 552.387,890.58C554.369,892.82 557.474,896.038 561.702,900.234L564.303,902.581C565.245,903.363 566.261,903.95 567.351,904.341C568.655,904.803 569.308,905.683 569.308,906.981C569.308,907.585 569.134,908.163 568.788,908.714C568.358,909.39 567.788,909.728 567.078,909.728Z" style="fill:rgb(84,55,41);fill-rule:nonzero;"/>
                    <path d="M584.519,909.861C580.787,909.861 577.764,908.857 575.452,906.848C572.925,904.625 571.661,901.514 571.661,897.513C571.661,892.891 572.702,889.015 574.783,885.886C577.046,882.472 580.068,880.766 583.851,880.766C586.592,880.766 588.83,881.263 590.564,882.259C592.695,883.486 593.76,885.37 593.76,887.913C593.76,889.691 592.827,891.309 590.961,892.766C590.135,893.407 588.384,894.402 585.709,895.753L576.245,900.58C577.17,902.056 578.322,903.167 579.701,903.914C581.08,904.661 582.686,905.034 584.519,905.034C585.659,905.034 586.997,904.803 588.533,904.341C590.482,903.754 591.737,902.985 592.299,902.034C592.86,901.083 593.463,900.607 594.107,900.607C594.685,900.607 595.201,900.843 595.656,901.314C596.11,901.785 596.337,902.332 596.337,902.954C596.337,904.927 594.859,906.625 591.902,908.048C589.375,909.257 586.914,909.861 584.519,909.861ZM583.851,885.566C581.836,885.566 580.159,886.406 578.821,888.086C577.483,889.766 576.484,892.295 575.824,895.673L583.429,891.78C586.419,890.215 588.549,888.855 589.821,887.699C588.401,886.277 586.411,885.566 583.851,885.566Z" style="fill:rgb(84,55,41);fill-rule:nonzero;"/>
                    <path d="M619.749,910.528C618.328,910.528 617.527,909.692 617.346,908.021L616.652,902.181C616.421,900.1 616.305,898.154 616.305,896.34C616.305,895.842 616.334,894.998 616.392,893.807C616.45,892.615 616.479,891.771 616.479,891.273C616.479,887.433 615.818,885.513 614.497,885.513C612.647,885.513 610.879,886.695 609.195,889.059C607.675,891.211 606.486,893.931 605.627,897.22C605.594,897.914 605.52,898.785 605.404,899.834C605.305,900.723 605.256,901.585 605.256,902.421C605.256,902.954 605.305,903.754 605.404,904.821C605.503,905.887 605.553,906.688 605.553,907.221C605.553,908.021 605.326,908.67 604.872,909.168C604.417,909.666 603.835,909.914 603.125,909.914C602.398,909.914 601.812,909.666 601.366,909.168C600.92,908.67 600.697,908.021 600.697,907.221C600.697,906.688 600.643,905.887 600.536,904.821C600.429,903.754 600.375,902.954 600.375,902.421C600.375,900.589 600.495,898.051 600.734,894.807C600.974,891.562 601.094,889.024 601.094,887.193C601.094,886.624 601.065,885.779 601.007,884.659C600.949,883.539 600.92,882.695 600.92,882.126C600.92,881.361 601.155,880.734 601.626,880.245C602.097,879.757 602.679,879.512 603.373,879.512C604.892,879.512 605.726,880.668 605.875,882.979L605.949,886.099C608.724,882.117 611.573,880.125 614.497,880.125C617.139,880.125 618.981,881.379 620.021,883.886C620.731,885.557 621.12,888.028 621.186,891.3L621.186,893.993L621.161,896.473C621.161,897.949 621.338,899.856 621.694,902.194C622.049,904.532 622.226,906.43 622.226,907.888C622.226,908.67 621.991,909.306 621.52,909.794C621.049,910.283 620.459,910.528 619.749,910.528Z" style="fill:rgb(84,55,41);fill-rule:nonzero;"/>
                    <path d="M646.307,910.528C644.887,910.528 644.086,909.692 643.904,908.021L643.21,902.181C642.979,900.1 642.863,898.154 642.863,896.34C642.863,895.842 642.892,894.998 642.95,893.807C643.008,892.615 643.037,891.771 643.037,891.273C643.037,887.433 642.376,885.513 641.055,885.513C639.205,885.513 637.438,886.695 635.753,889.059C634.234,891.211 633.044,893.931 632.186,897.22C632.152,897.914 632.078,898.785 631.963,899.834C631.863,900.723 631.814,901.585 631.814,902.421C631.814,902.954 631.863,903.754 631.963,904.821C632.062,905.887 632.111,906.688 632.111,907.221C632.111,908.021 631.884,908.67 631.43,909.168C630.976,909.666 630.394,909.914 629.683,909.914C628.957,909.914 628.37,909.666 627.924,909.168C627.478,908.67 627.255,908.021 627.255,907.221C627.255,906.688 627.202,905.887 627.094,904.821C626.987,903.754 626.933,902.954 626.933,902.421C626.933,900.589 627.053,898.051 627.293,894.807C627.532,891.562 627.652,889.024 627.652,887.193C627.652,886.624 627.623,885.779 627.565,884.659C627.507,883.539 627.478,882.695 627.478,882.126C627.478,881.361 627.714,880.734 628.184,880.245C628.655,879.757 629.237,879.512 629.931,879.512C631.451,879.512 632.285,880.668 632.433,882.979L632.508,886.099C635.282,882.117 638.131,880.125 641.055,880.125C643.697,880.125 645.539,881.379 646.58,883.886C647.29,885.557 647.678,888.028 647.744,891.3L647.744,893.993L647.719,896.473C647.719,897.949 647.897,899.856 648.252,902.194C648.607,904.532 648.784,906.43 648.784,907.888C648.784,908.67 648.549,909.306 648.078,909.794C647.608,910.283 647.017,910.528 646.307,910.528Z" style="fill:rgb(84,55,41);fill-rule:nonzero;"/>
                    <path d="M665.433,909.861C661.7,909.861 658.678,908.857 656.365,906.848C653.838,904.625 652.575,901.514 652.575,897.513C652.575,892.891 653.615,889.015 655.697,885.886C657.959,882.472 660.982,880.766 664.764,880.766C667.506,880.766 669.744,881.263 671.478,882.259C673.608,883.486 674.674,885.37 674.674,887.913C674.674,889.691 673.741,891.309 671.874,892.766C671.048,893.407 669.298,894.402 666.622,895.753L657.158,900.58C658.083,902.056 659.235,903.167 660.614,903.914C661.993,904.661 663.6,905.034 665.433,905.034C666.573,905.034 667.91,904.803 669.446,904.341C671.395,903.754 672.651,902.985 673.212,902.034C673.774,901.083 674.376,900.607 675.021,900.607C675.599,900.607 676.115,900.843 676.569,901.314C677.023,901.785 677.25,902.332 677.25,902.954C677.25,904.927 675.772,906.625 672.816,908.048C670.289,909.257 667.828,909.861 665.433,909.861ZM664.764,885.566C662.749,885.566 661.073,886.406 659.735,888.086C658.397,889.766 657.398,892.295 656.737,895.673L664.343,891.78C667.332,890.215 669.463,888.855 670.735,887.699C669.314,886.277 667.324,885.566 664.764,885.566Z" style="fill:rgb(84,55,41);fill-rule:nonzero;"/>
                    <path d="M704.477,885.086C704.279,887.699 704.18,890.313 704.18,892.926C704.18,898.847 704.436,903.318 704.948,906.341C704.981,906.59 704.998,906.794 704.998,906.954C704.998,907.665 704.767,908.252 704.304,908.714C703.842,909.177 703.305,909.408 702.694,909.408C701.67,909.408 700.918,908.608 700.439,907.008C699.25,907.95 698.015,908.661 696.735,909.141C695.455,909.621 694.122,909.861 692.734,909.861C689.315,909.861 686.483,908.634 684.237,906.181C681.924,903.674 680.768,900.456 680.768,896.527C680.768,891.78 681.937,887.975 684.274,885.113C686.611,882.25 689.646,880.819 693.379,880.819C695.294,880.819 696.773,881.139 697.813,881.779L700.142,883.619C700.373,876.134 700.646,871.094 700.96,868.498C701.174,866.916 701.926,866.124 703.214,866.124C704.717,866.124 705.468,866.987 705.468,868.711C705.468,871.183 705.138,876.641 704.477,885.086ZM693.478,885.779C690.703,885.779 688.622,886.664 687.234,888.433C685.847,890.202 685.153,892.864 685.153,896.42C685.153,898.714 685.909,900.687 687.42,902.341C688.931,903.994 690.703,904.821 692.734,904.821C694.122,904.821 695.294,904.545 696.252,903.994C696.814,903.674 697.731,902.936 699.002,901.78C699.25,901.549 699.49,901.274 699.721,900.954L699.646,896.34L699.671,893.246L699.721,890.1C699.093,888.659 698.259,887.579 697.219,886.859C696.178,886.139 694.931,885.779 693.478,885.779Z" style="fill:rgb(84,55,41);fill-rule:nonzero;"/>
                    <path d="M733.067,884.846L724.495,904.794C722.381,909.648 720.763,913.71 719.639,916.982L718.004,922.155C717.575,923.436 716.832,924.076 715.775,924.076C715.081,924.076 714.482,923.831 713.978,923.342C713.475,922.853 713.223,922.244 713.223,921.515C713.223,919.737 715.007,914.59 718.574,906.074L709.705,887.699L708.59,885.753C708.144,884.935 707.921,884.25 707.921,883.699C707.921,882.97 708.181,882.33 708.702,881.779C709.222,881.228 709.804,880.952 710.448,880.952C711.208,880.952 711.794,881.263 712.207,881.886C715.015,886.081 718.029,892.055 721.25,899.807L724.916,890.606C726.238,887.424 727.509,884.686 728.732,882.392C729.26,881.397 729.954,880.899 730.813,880.899C731.49,880.899 732.089,881.157 732.609,881.672C733.129,882.188 733.389,882.801 733.389,883.512C733.389,883.904 733.282,884.348 733.067,884.846Z" style="fill:rgb(84,55,41);fill-rule:nonzero;"/>
                </g>
                <g>
                    <path d="M277.908,977.548C274.686,977.548 271.998,976.574 269.844,974.624C267.581,972.581 266.449,969.885 266.449,966.537C266.449,963.346 267.51,960.052 269.632,956.657C271.99,952.884 274.647,950.998 277.602,950.998C279.142,950.998 280.864,951.359 282.766,952.083C285.171,953.01 286.373,954.142 286.373,955.478C286.373,956.075 286.177,956.606 285.784,957.07C285.391,957.533 284.904,957.765 284.322,957.765C283.866,957.765 283.469,957.628 283.131,957.352C282.793,957.077 282.467,956.806 282.153,956.539C281.225,955.8 279.708,955.431 277.602,955.431C275.999,955.431 274.411,956.861 272.839,959.722C271.408,962.347 270.693,964.619 270.693,966.537C270.693,968.612 271.401,970.246 272.815,971.441C274.136,972.557 275.833,973.115 277.908,973.115C278.852,973.115 279.858,972.864 280.927,972.361L283.662,970.899C284.133,970.647 284.471,970.522 284.676,970.522C285.257,970.522 285.76,970.753 286.185,971.217C286.609,971.681 286.821,972.211 286.821,972.809C286.821,973.956 285.611,975.064 283.19,976.133C281.068,977.077 279.307,977.548 277.908,977.548Z" style="fill:rgb(84,55,41);fill-rule:nonzero;"/>
                    <path d="M305.378,976.086L300.686,976.086L296.017,976.063C294.917,976.063 294.147,975.992 293.707,975.85C292.905,975.567 292.504,974.97 292.504,974.058C292.504,972.471 293.738,971.677 296.206,971.677L297.338,971.7L298.305,971.748C298.305,970.993 298.238,969.877 298.104,968.399C297.97,966.922 297.904,965.814 297.904,965.075C297.904,963.078 298.084,960.044 298.446,955.973C298.792,951.965 298.957,948.923 298.941,946.848C296.835,948.483 295.491,949.3 294.909,949.3C294.28,949.3 293.734,949.064 293.27,948.593C292.807,948.121 292.575,947.579 292.575,946.966C292.575,946.227 293.251,945.331 294.603,944.278C295.451,943.68 296.654,942.722 298.21,941.401C299.594,940.002 300.914,939.303 302.172,939.303C303.225,939.303 303.751,939.908 303.751,941.118C303.751,941.48 303.704,942.018 303.61,942.733C303.516,943.449 303.468,943.987 303.468,944.349C303.468,944.867 303.496,945.653 303.551,946.706C303.606,947.76 303.633,948.546 303.633,949.064C303.633,950.856 303.445,953.529 303.068,957.081C302.69,960.634 302.502,963.298 302.502,965.075C302.502,965.986 302.564,967.095 302.69,968.399C302.816,969.704 302.887,970.773 302.902,971.606L305.378,971.559C306.039,971.559 306.585,971.775 307.017,972.207C307.449,972.64 307.665,973.178 307.665,973.823C307.665,974.483 307.449,975.025 307.017,975.45C306.585,975.874 306.039,976.086 305.378,976.086Z" style="fill:rgb(84,55,41);fill-rule:nonzero;"/>
                    <path d="M327.118,976.086L322.426,976.086L317.757,976.063C316.657,976.063 315.887,975.992 315.447,975.85C314.645,975.567 314.244,974.97 314.244,974.058C314.244,972.471 315.478,971.677 317.946,971.677L319.078,971.7L320.045,971.748C320.045,970.993 319.978,969.877 319.844,968.399C319.711,966.922 319.644,965.814 319.644,965.075C319.644,963.078 319.825,960.044 320.186,955.973C320.532,951.965 320.697,948.923 320.681,946.848C318.575,948.483 317.231,949.3 316.649,949.3C316.02,949.3 315.474,949.064 315.01,948.593C314.547,948.121 314.315,947.579 314.315,946.966C314.315,946.227 314.991,945.331 316.343,944.278C317.192,943.68 318.394,942.722 319.95,941.401C321.334,940.002 322.654,939.303 323.912,939.303C324.965,939.303 325.491,939.908 325.491,941.118C325.491,941.48 325.444,942.018 325.35,942.733C325.256,943.449 325.208,943.987 325.208,944.349C325.208,944.867 325.236,945.653 325.291,946.706C325.346,947.76 325.374,948.546 325.374,949.064C325.374,950.856 325.185,953.529 324.808,957.081C324.43,960.634 324.242,963.298 324.242,965.075C324.242,965.986 324.305,967.095 324.43,968.399C324.556,969.704 324.627,970.773 324.643,971.606L327.118,971.559C327.779,971.559 328.325,971.775 328.757,972.207C329.189,972.64 329.406,973.178 329.406,973.823C329.406,974.483 329.189,975.025 328.757,975.45C328.325,975.874 327.779,976.086 327.118,976.086Z" style="fill:rgb(84,55,41);fill-rule:nonzero;"/>
                    <path d="M354.989,965.758L354.989,974.483C354.989,975.945 354.274,976.676 352.843,976.676C351.177,976.676 350.344,975.536 350.344,973.257C350.344,972.974 350.36,972.573 350.391,972.054C350.423,971.535 350.438,971.182 350.438,970.993L350.415,965.641L340.016,965.381C337.863,965.381 336.369,965.31 335.536,965.169C334.106,964.933 333.39,964.375 333.39,963.495C333.39,962.788 333.823,961.891 334.687,960.807L336.715,958.402L348.316,941.472C349.369,940.01 350.706,939.279 352.325,939.279C354.101,939.279 354.989,940.049 354.989,941.59L354.989,961.184C355.256,961.168 355.579,961.161 355.956,961.161C358.848,961.161 360.294,961.939 360.294,963.495C360.294,964.627 359.697,965.342 358.502,965.641C357.968,965.782 356.797,965.821 354.989,965.758ZM350.415,945.81C346.218,952.507 342.94,957.521 340.582,960.854L350.415,961.09L350.415,945.81Z" style="fill:rgb(84,55,41);fill-rule:nonzero;"/>
                    <path d="M388.943,945.268L386.798,947.768C384.754,950.157 382.876,953.049 381.162,956.445L376.871,965.853C376.572,966.544 375.912,968.36 374.89,971.3C374.073,973.626 373.31,975.363 372.603,976.511C372.163,977.249 371.534,977.619 370.716,977.619C370.088,977.619 369.534,977.399 369.054,976.959C368.575,976.519 368.335,975.992 368.335,975.379C368.335,974.781 368.838,973.249 369.844,970.781L375.149,957.789C377.492,952.648 379.897,948.687 382.365,945.905L382.813,945.41L370.976,945.174L365.67,945.032C364.146,944.891 363.383,944.136 363.383,942.769C363.383,942.108 363.603,941.566 364.044,941.142C364.484,940.717 365.034,940.505 365.694,940.505C367.675,940.505 370.65,940.568 374.619,940.694C378.588,940.819 381.563,940.882 383.544,940.882L387.859,940.882C389.525,940.882 390.358,941.378 390.358,942.368C390.358,943.107 389.886,944.073 388.943,945.268Z" style="fill:rgb(84,55,41);fill-rule:nonzero;"/>
                    <path d="M405.685,977.336C402.368,977.336 399.688,976.613 397.644,975.167C395.318,973.532 394.131,971.135 394.084,967.975C394.021,962.898 395.805,959.439 399.436,957.6C396.638,955.902 395.239,953.489 395.239,950.361C395.239,947.39 396.316,944.922 398.469,942.957C400.529,941.071 403.028,940.112 405.967,940.081C412.57,940.018 415.871,943.28 415.871,949.866C415.871,951.752 415.494,953.206 414.739,954.228C414.126,955.077 412.939,955.95 411.178,956.846C413.521,958.024 415.163,959.298 416.107,960.665C417.207,962.269 417.757,964.477 417.757,967.291C417.757,970.498 416.57,973.013 414.197,974.837C411.996,976.503 409.159,977.336 405.685,977.336ZM405.897,944.301C403.869,944.301 402.321,944.875 401.252,946.023C400.293,947.092 399.821,948.538 399.837,950.361C399.853,952.562 401.66,954.126 405.26,955.054C407.146,954.503 408.498,953.953 409.316,953.403C410.62,952.523 411.273,951.344 411.273,949.866C411.273,947.728 410.793,946.227 409.834,945.362C409.017,944.655 407.704,944.301 405.897,944.301ZM405.472,959.227C402.973,960.39 401.307,961.396 400.474,962.245C399.169,963.55 398.556,965.389 398.634,967.763C398.697,969.728 399.601,971.197 401.346,972.172C402.619,972.864 404.065,973.21 405.685,973.21C408.451,973.21 410.385,972.557 411.485,971.252C412.365,970.215 412.805,968.643 412.805,966.537C412.805,964.477 412.004,962.819 410.4,961.561C409.331,960.697 407.689,959.919 405.472,959.227Z" style="fill:rgb(84,55,41);fill-rule:nonzero;"/>
                    <path d="M439.167,973.21C438.02,974.058 436.18,975.08 433.65,976.275C430.836,977.627 428.879,978.303 427.778,978.303C427.134,978.303 426.603,978.067 426.187,977.595C425.77,977.124 425.562,976.574 425.562,975.945C425.562,975.017 426.096,974.318 427.165,973.846L431.103,972.502C433.54,971.512 435.465,970.372 436.88,969.083C438.295,967.794 439.584,965.963 440.747,963.589L441.761,961.561C440.881,962.064 439.749,962.528 438.365,962.953C436.982,963.377 435.858,963.589 434.994,963.589C432.023,963.589 429.452,962.764 427.283,961.113C424.642,959.101 423.322,956.24 423.322,952.531C423.322,948.145 424.674,944.852 427.377,942.651C429.688,940.78 432.722,939.845 436.479,939.845C439.371,939.845 441.965,941.024 444.26,943.382C446.681,945.881 447.899,948.899 447.915,952.436C447.931,956.429 447.192,960.304 445.699,964.061C444.095,968.116 441.918,971.166 439.167,973.21ZM435.819,943.877C433.178,943.877 431.193,944.561 429.865,945.928C428.537,947.296 427.865,949.355 427.849,952.106C427.849,954.417 428.659,956.209 430.278,957.482C431.708,958.598 433.508,959.156 435.677,959.156C436.935,959.156 438.248,958.779 439.615,958.024C440.244,957.679 441.376,956.901 443.011,955.69C443.215,954.323 443.317,953.238 443.317,952.436C443.301,950.471 442.472,948.553 440.829,946.683C439.187,944.812 437.517,943.877 435.819,943.877Z" style="fill:rgb(84,55,41);fill-rule:nonzero;"/>
                    <path d="M477.366,945.268L475.22,947.768C473.176,950.157 471.298,953.049 469.584,956.445L465.293,965.853C464.994,966.544 464.334,968.36 463.312,971.3C462.495,973.626 461.732,975.363 461.025,976.511C460.585,977.249 459.956,977.619 459.139,977.619C458.51,977.619 457.956,977.399 457.476,976.959C456.997,976.519 456.757,975.992 456.757,975.379C456.757,974.781 457.26,973.249 458.266,970.781L463.572,957.789C465.914,952.648 468.319,948.687 470.787,945.905L471.235,945.41L459.398,945.174L454.093,945.032C452.568,944.891 451.806,944.136 451.806,942.769C451.806,942.108 452.026,941.566 452.466,941.142C452.906,940.717 453.456,940.505 454.116,940.505C456.097,940.505 459.072,940.568 463.041,940.694C467.01,940.819 469.985,940.882 471.966,940.882L476.281,940.882C477.947,940.882 478.78,941.378 478.78,942.368C478.78,943.107 478.309,944.073 477.366,945.268Z" style="fill:rgb(84,55,41);fill-rule:nonzero;"/>
                    <path d="M503.397,976.11C503.004,976.11 502.45,975.988 501.735,975.744C501.019,975.501 500.473,975.379 500.096,975.379C499.294,975.379 498.092,975.426 496.488,975.52C494.885,975.615 493.675,975.662 492.857,975.662C492.244,975.662 491.336,975.74 490.134,975.898C488.931,976.055 488.023,976.133 487.41,976.133C487.237,976.133 486.986,976.102 486.656,976.039C486.326,975.976 486.074,975.945 485.901,975.945C484.817,975.945 484.109,975.418 483.779,974.365C483.59,973.815 483.496,972.872 483.496,971.535C483.496,967.873 484.494,964.925 486.491,962.693C487.402,961.671 489.863,959.785 493.871,957.034C496.119,955.494 497.62,954.291 498.375,953.427C499.727,951.917 500.402,950.149 500.402,948.121C500.402,947.115 499.75,946.219 498.445,945.433C497.298,944.726 496.174,944.372 495.074,944.372C493.627,944.372 492.252,944.789 490.947,945.622L487.575,948.263C486.899,948.797 486.357,949.064 485.948,949.064C484.329,949.064 483.52,948.42 483.52,947.131C483.52,946.392 483.818,945.755 484.416,945.221C486.255,943.492 487.85,942.242 489.202,941.472C491.104,940.387 493.061,939.845 495.074,939.845C497.62,939.845 499.892,940.537 501.888,941.92C504.12,943.476 505.236,945.472 505.236,947.909C505.236,949.512 505.008,950.99 504.552,952.342C504.097,953.694 503.405,954.928 502.477,956.044C501.298,957.459 499.302,959.038 496.488,960.783C493.533,962.638 491.592,964.045 490.664,965.004C488.919,966.812 488.063,969.005 488.094,971.583L492.951,971.135C496.284,970.946 498.665,970.852 500.096,970.852C501.291,970.852 502.422,971.056 503.491,971.465C504.906,972.015 505.613,972.777 505.613,973.752C505.613,974.365 505.401,974.911 504.977,975.391C504.552,975.87 504.026,976.11 503.397,976.11Z" style="fill:rgb(84,55,41);fill-rule:nonzero;"/>
                    <path d="M539.898,966.348C538.231,966.348 536.793,966.104 535.583,965.617C534.372,965.13 533.398,964.407 532.659,963.448C531.81,964.281 530.981,964.91 530.171,965.334C529.362,965.758 528.572,965.971 527.802,965.971C526.057,965.971 524.41,965.259 522.862,963.837C521.313,962.414 520.539,960.854 520.539,959.156C520.539,956.248 521.683,953.592 523.97,951.187C526.257,948.781 528.855,947.579 531.763,947.579C532.423,947.579 532.973,947.823 533.413,948.31C533.854,948.797 534.074,949.387 534.074,950.078C534.074,951.021 533.288,951.721 531.716,952.177C529.625,952.774 528.147,953.458 527.283,954.228C526.01,955.344 525.373,956.987 525.373,959.156C525.373,959.612 525.585,960.052 526.01,960.477C526.497,960.948 527.102,961.168 527.825,961.137C529.193,961.074 530.458,959.801 531.621,957.317C532.675,955.148 533.61,954.063 534.427,954.063C535.088,954.063 535.622,954.307 536.031,954.794C536.439,955.281 536.644,955.879 536.644,956.586C536.644,956.901 536.593,957.372 536.491,958.001C536.388,958.63 536.337,959.101 536.337,959.416C536.337,960.437 536.777,961.082 537.658,961.349C538.004,961.459 538.75,961.514 539.898,961.514C542.051,961.514 543.56,960.988 544.425,959.934C545.211,958.991 545.604,957.427 545.604,955.242C545.604,951.391 544.056,948.247 540.959,945.81C538.129,943.578 534.75,942.462 530.82,942.462C526.245,942.462 522.661,944.191 520.068,947.65C517.725,950.731 516.554,954.605 516.554,959.274C516.554,963.581 517.93,967.213 520.681,970.168C523.542,973.249 527.22,974.789 531.716,974.789C532.989,974.789 534.427,974.546 536.031,974.058L540.157,972.526C540.849,972.274 541.297,972.148 541.501,972.148C542.146,972.148 542.704,972.404 543.175,972.915C543.647,973.426 543.883,974.019 543.883,974.695C543.883,976.188 542.209,977.399 538.86,978.326C536.329,979.018 533.964,979.364 531.763,979.364C529.546,979.364 527.279,978.935 524.96,978.079C522.642,977.222 520.657,976.078 519.007,974.648C514.133,970.435 511.697,965.31 511.697,959.274C511.697,953.238 513.363,948.192 516.696,944.136C520.233,939.798 524.941,937.628 530.82,937.628C536.133,937.628 540.684,939.224 544.472,942.415C548.449,945.795 550.438,950.07 550.438,955.242C550.438,958.779 549.573,961.499 547.844,963.401C546.036,965.366 543.387,966.348 539.898,966.348Z" style="fill:rgb(84,55,41);fill-rule:nonzero;"/>
                    <path d="M587.292,978.02C586.003,978.02 585.249,977.336 585.029,975.968C584.746,974.239 584.463,971.803 584.18,968.659L583.378,961.349C583.221,960.265 582.954,959.203 582.576,958.166C582.042,956.751 581.46,956.044 580.831,956.044C580.25,956.044 579.165,956.539 577.577,957.529C576.068,958.441 575.078,959.172 574.606,959.722C574.591,961.2 574.63,962.677 574.724,964.155L575.432,970.451C575.73,972.934 575.88,974.986 575.88,976.605C575.88,977.297 575.664,977.866 575.231,978.314C574.799,978.762 574.245,978.986 573.569,978.986C572.893,978.986 572.339,978.762 571.907,978.314C571.474,977.866 571.258,977.297 571.258,976.605C571.258,974.703 571.066,971.893 570.681,968.175C570.295,964.458 570.103,961.648 570.103,959.746C570.103,958.08 569.867,956.783 569.395,955.855C568.295,956.358 567.179,957.176 566.047,958.307L563.265,961.42C563.013,961.797 562.612,962.292 562.062,962.905C562.062,963.849 561.976,965.24 561.803,967.079C561.63,968.918 561.544,970.278 561.544,971.158C561.544,971.63 561.618,972.29 561.768,973.139C561.917,973.988 561.992,974.601 561.992,974.978C561.992,975.622 561.752,976.165 561.272,976.605C560.793,977.045 560.231,977.265 559.586,977.265C557.81,977.265 556.922,975.245 556.922,971.205C556.922,970.262 557.008,968.855 557.181,966.985C557.354,965.114 557.441,963.707 557.441,962.764C557.441,961.931 557.366,960.681 557.217,959.015C557.067,957.349 556.993,956.091 556.993,955.242C556.993,951.674 557.794,949.89 559.398,949.89C560.011,949.89 560.573,950.157 561.084,950.691C561.595,951.226 561.85,951.807 561.85,952.436C561.85,952.735 561.811,953.199 561.732,953.827C561.654,954.456 561.614,954.936 561.614,955.266L561.661,957.742C562.479,956.06 563.681,954.539 565.269,953.179C566.857,951.819 568.209,951.139 569.325,951.139C571.793,951.139 573.49,952.365 574.418,954.818C575.282,953.67 576.312,952.81 577.507,952.236C578.701,951.662 580.069,951.375 581.61,951.375C584.235,951.375 586.027,952.79 586.986,955.619C587.174,956.185 587.496,958.394 587.952,962.245C588.392,964.949 588.958,969.453 589.65,975.756C589.697,976.385 589.485,976.919 589.013,977.359C588.542,977.8 587.968,978.02 587.292,978.02Z" style="fill:rgb(84,55,41);fill-rule:nonzero;"/>
                    <path d="M615.422,955.03L607.264,972.667C605.252,976.959 603.711,980.551 602.642,983.443L601.086,988.017C600.677,989.149 599.97,989.715 598.964,989.715C598.304,989.715 597.734,989.499 597.254,989.067C596.775,988.634 596.535,988.096 596.535,987.451C596.535,985.879 598.233,981.329 601.628,973.799L593.187,957.553L592.126,955.832C591.701,955.109 591.489,954.503 591.489,954.016C591.489,953.372 591.737,952.806 592.232,952.318C592.727,951.831 593.281,951.587 593.894,951.587C594.617,951.587 595.175,951.862 595.568,952.413C598.241,956.122 601.11,961.404 604.175,968.258L607.665,960.123C608.922,957.309 610.133,954.888 611.296,952.861C611.799,951.98 612.459,951.54 613.276,951.54C613.921,951.54 614.491,951.768 614.986,952.224C615.481,952.68 615.729,953.222 615.729,953.851C615.729,954.197 615.627,954.59 615.422,955.03Z" style="fill:rgb(84,55,41);fill-rule:nonzero;"/>
                    <path d="M641.713,955.242C641.524,957.553 641.43,959.864 641.43,962.174C641.43,967.409 641.674,971.363 642.161,974.035C642.193,974.255 642.208,974.436 642.208,974.577C642.208,975.206 641.988,975.725 641.548,976.133C641.108,976.542 640.597,976.746 640.015,976.746C639.041,976.746 638.326,976.039 637.87,974.624C636.738,975.457 635.563,976.086 634.345,976.511C633.126,976.935 631.857,977.147 630.537,977.147C627.283,977.147 624.587,976.063 622.449,973.893C620.248,971.677 619.148,968.832 619.148,965.358C619.148,961.161 620.26,957.797 622.484,955.266C624.708,952.735 627.597,951.469 631.15,951.469C632.973,951.469 634.38,951.752 635.37,952.318L637.587,953.945C637.807,947.327 638.066,942.871 638.365,940.576C638.569,939.177 639.284,938.477 640.511,938.477C641.941,938.477 642.656,939.24 642.656,940.764C642.656,942.949 642.342,947.775 641.713,955.242ZM631.244,955.855C628.603,955.855 626.622,956.637 625.302,958.201C623.981,959.765 623.321,962.119 623.321,965.263C623.321,967.291 624.04,969.036 625.479,970.498C626.917,971.96 628.603,972.691 630.537,972.691C631.857,972.691 632.973,972.447 633.885,971.96C634.419,971.677 635.292,971.025 636.502,970.003C636.738,969.798 636.966,969.555 637.186,969.272L637.115,965.193L637.139,962.457L637.186,959.675C636.589,958.402 635.795,957.447 634.804,956.81C633.814,956.174 632.627,955.855 631.244,955.855Z" style="fill:rgb(84,55,41);fill-rule:nonzero;"/>
                    <path d="M652.866,946.211C652.112,946.211 651.459,945.944 650.909,945.41C650.359,944.875 650.084,944.231 650.084,943.476C650.084,942.722 650.359,942.077 650.909,941.543C651.459,941.008 652.112,940.741 652.866,940.741C653.621,940.741 654.269,941.008 654.811,941.543C655.354,942.077 655.625,942.722 655.625,943.476C655.625,944.231 655.354,944.875 654.811,945.41C654.269,945.944 653.621,946.211 652.866,946.211ZM653.927,965.358C653.927,966.301 653.955,967.712 654.01,969.59C654.065,971.469 654.092,972.879 654.092,973.823C654.092,974.514 653.88,975.08 653.456,975.52C653.031,975.96 652.473,976.181 651.781,976.181C651.105,976.181 650.551,975.96 650.119,975.52C649.687,975.08 649.471,974.514 649.471,973.823C649.471,972.879 649.443,971.469 649.388,969.59C649.333,967.712 649.306,966.301 649.306,965.358C649.306,963.88 649.384,962.037 649.541,959.828C649.699,957.62 649.777,955.777 649.777,954.299C649.777,953.592 649.993,953.018 650.426,952.578C650.858,952.138 651.412,951.917 652.088,951.917C652.764,951.917 653.318,952.138 653.75,952.578C654.183,953.018 654.399,953.592 654.399,954.299C654.399,955.777 654.32,957.62 654.163,959.828C654.006,962.037 653.927,963.88 653.927,965.358Z" style="fill:rgb(84,55,41);fill-rule:nonzero;"/>
                    <path d="M677.671,955.973C677.341,955.973 676.952,955.957 676.504,955.926C676.056,955.894 675.667,955.879 675.337,955.879C674.976,955.879 673.907,955.997 672.13,956.232L672.578,970.168L672.602,971.205L672.626,972.408C672.688,975.85 671.863,977.572 670.15,977.572C669.521,977.572 668.975,977.367 668.511,976.959C668.047,976.55 667.815,976.039 667.815,975.426C667.815,974.829 667.839,973.933 667.886,972.738C667.933,971.543 667.957,970.647 667.957,970.05L667.485,956.28C666.338,956.232 664.593,956.099 662.251,955.879C660.852,955.69 660.152,954.912 660.152,953.544C660.152,952.853 660.364,952.279 660.789,951.823C661.213,951.367 661.755,951.139 662.416,951.139L667.367,951.54C667.367,950.738 667.332,949.666 667.261,948.322C667.19,946.978 667.155,946.007 667.155,945.41C667.155,944.749 667.383,944.203 667.839,943.771C668.295,943.339 668.853,943.122 669.513,943.122C670.928,943.122 671.753,944.278 671.989,946.589C672.036,947.17 672.06,947.87 672.06,948.687L672.012,950.055L671.989,951.517C673.938,951.265 675.054,951.139 675.337,951.139C676.972,951.139 678.041,951.218 678.544,951.375C679.503,951.69 679.982,952.428 679.982,953.592C679.982,954.283 679.766,954.853 679.334,955.301C678.902,955.749 678.347,955.973 677.671,955.973Z" style="fill:rgb(84,55,41);fill-rule:nonzero;"/>
                    <path d="M687.669,978.256C686.852,978.256 686.16,977.973 685.594,977.407C685.028,976.841 684.745,976.149 684.745,975.332C684.745,974.53 685.028,973.842 685.594,973.268C686.16,972.695 686.852,972.408 687.669,972.408C688.471,972.408 689.159,972.695 689.732,973.268C690.306,973.842 690.593,974.53 690.593,975.332C690.593,976.149 690.306,976.841 689.732,977.407C689.159,977.973 688.471,978.256 687.669,978.256Z" style="fill:rgb(84,55,41);fill-rule:nonzero;"/>
                    <path d="M701.18,946.211C700.425,946.211 699.773,945.944 699.223,945.41C698.673,944.875 698.398,944.231 698.398,943.476C698.398,942.722 698.673,942.077 699.223,941.543C699.773,941.008 700.425,940.741 701.18,940.741C701.935,940.741 702.583,941.008 703.125,941.543C703.668,942.077 703.939,942.722 703.939,943.476C703.939,944.231 703.668,944.875 703.125,945.41C702.583,945.944 701.935,946.211 701.18,946.211ZM702.241,965.358C702.241,966.301 702.269,967.712 702.324,969.59C702.379,971.469 702.406,972.879 702.406,973.823C702.406,974.514 702.194,975.08 701.769,975.52C701.345,975.96 700.787,976.181 700.095,976.181C699.419,976.181 698.865,975.96 698.433,975.52C698.001,975.08 697.785,974.514 697.785,973.823C697.785,972.879 697.757,971.469 697.702,969.59C697.647,967.712 697.62,966.301 697.62,965.358C697.62,963.88 697.698,962.037 697.855,959.828C698.013,957.62 698.091,955.777 698.091,954.299C698.091,953.592 698.307,953.018 698.74,952.578C699.172,952.138 699.726,951.917 700.402,951.917C701.078,951.917 701.632,952.138 702.064,952.578C702.497,953.018 702.713,953.592 702.713,954.299C702.713,955.777 702.634,957.62 702.477,959.828C702.32,962.037 702.241,963.88 702.241,965.358Z" style="fill:rgb(84,55,41);fill-rule:nonzero;"/>
                    <path d="M721.222,977.147C717.67,977.147 714.793,976.259 712.592,974.483C710.187,972.518 708.985,969.767 708.985,966.23C708.985,962.143 709.975,958.716 711.956,955.95C714.109,952.931 716.986,951.422 720.586,951.422C723.195,951.422 725.325,951.862 726.976,952.743C729.004,953.827 730.017,955.494 730.017,957.742C730.017,959.313 729.129,960.744 727.353,962.033C726.567,962.599 724.901,963.479 722.354,964.674L713.347,968.942C714.227,970.246 715.324,971.229 716.636,971.889C717.949,972.549 719.478,972.879 721.222,972.879C722.307,972.879 723.58,972.675 725.042,972.266C726.897,971.748 728.092,971.068 728.626,970.227C729.161,969.386 729.735,968.965 730.348,968.965C730.898,968.965 731.389,969.174 731.821,969.59C732.254,970.007 732.47,970.49 732.47,971.04C732.47,972.785 731.063,974.286 728.249,975.544C725.844,976.613 723.502,977.147 721.222,977.147ZM720.586,955.667C718.668,955.667 717.072,956.409 715.799,957.895C714.526,959.38 713.575,961.616 712.946,964.603L720.185,961.161C723.03,959.777 725.058,958.575 726.268,957.553C724.916,956.295 723.022,955.667 720.586,955.667Z" style="fill:rgb(84,55,41);fill-rule:nonzero;"/>
                </g>
                <g>
                    <path d="M879.368,660.8C877.513,660.8 875.779,660.019 874.168,658.457C858.006,642.49 840.037,631.748 820.262,626.23L820.848,640.586L821.214,655.014C821.214,657.163 820.518,658.957 819.126,660.398C817.735,661.838 815.989,662.558 813.89,662.558C811.79,662.558 810.044,661.838 808.653,660.398C807.261,658.957 806.565,657.163 806.565,655.014C806.565,651.157 806.382,645.407 806.016,637.766C805.65,630.124 805.467,624.375 805.467,620.517C805.467,616.025 805.955,609.336 806.932,600.449C807.908,591.562 808.396,584.897 808.396,580.454C808.396,577.964 808.165,574.277 807.701,569.394C807.237,564.511 807.005,560.825 807.005,558.335C807.005,555.551 807.786,553.11 809.349,551.01C811.204,548.423 813.768,547.251 817.039,547.495L834.69,548.886C841.38,549.716 847.019,551.352 851.609,553.794C871.385,564.292 881.272,577.109 881.272,592.246C881.272,599.668 877.903,606.235 871.165,611.948C865.745,616.538 858.982,620.029 850.877,622.422C866.062,630.576 877.415,639.17 884.935,648.203C886.204,649.765 886.839,651.425 886.839,653.183C886.839,655.234 886.094,657.016 884.605,658.53C883.116,660.044 881.37,660.8 879.368,660.8ZM832.713,563.974L821.873,563.095L822.605,571.958C822.947,575.571 823.118,578.525 823.118,580.82C823.118,584.726 822.801,589.585 822.166,595.395L820.628,609.97C821.311,609.97 822.373,609.995 823.814,610.044C825.254,610.092 826.341,610.117 827.073,610.117C839.524,610.117 848.851,608.457 855.052,605.136C857.786,603.623 860.325,601.645 862.669,599.204C865.257,596.469 866.551,594.15 866.551,592.246C866.551,585.459 862.693,579.135 854.978,573.276C847.898,567.905 840.477,564.804 832.713,563.974Z" style="fill:rgb(84,55,41);fill-rule:nonzero;"/>
                    <path d="M935.545,663.364C924.51,663.364 915.574,660.605 908.738,655.088C901.268,648.984 897.532,640.439 897.532,629.453C897.532,616.758 900.608,606.113 906.761,597.519C913.45,588.144 922.386,583.457 933.567,583.457C941.673,583.457 948.289,584.824 953.416,587.558C959.715,590.927 962.864,596.103 962.864,603.086C962.864,607.968 960.105,612.412 954.588,616.416C952.146,618.174 946.971,620.908 939.061,624.619L911.082,637.876C913.816,641.928 917.222,644.98 921.299,647.031C925.376,649.082 930.125,650.107 935.545,650.107C938.914,650.107 942.869,649.472 947.41,648.203C953.172,646.591 956.883,644.48 958.543,641.867C960.203,639.255 961.985,637.949 963.89,637.949C965.599,637.949 967.124,638.596 968.467,639.89C969.81,641.184 970.481,642.685 970.481,644.394C970.481,649.814 966.111,654.477 957.371,658.383C949.9,661.704 942.625,663.364 935.545,663.364ZM933.567,596.64C927.61,596.64 922.654,598.947 918.699,603.562C914.744,608.176 911.79,615.122 909.837,624.399L932.322,613.706C941.16,609.409 947.459,605.674 951.219,602.5C947.019,598.593 941.136,596.64 933.567,596.64Z" style="fill:rgb(84,55,41);fill-rule:nonzero;"/>
                    <path d="M1017.28,656.186C1017.14,660.678 1014.91,662.925 1010.62,662.925C1007.05,662.925 1004.47,660.825 1002.85,656.626L991.648,626.889L978.611,593.271C978.123,592.002 977.879,590.879 977.879,589.902C977.879,587.9 978.636,586.191 980.149,584.775C981.663,583.359 983.421,582.651 985.423,582.651C988.352,582.651 990.452,584.14 991.722,587.119L1010.33,638.315C1013.99,630.503 1018.6,619.175 1024.17,604.331C1025.49,600.425 1027.56,594.907 1030.39,587.778C1031.91,584.653 1034.06,583.091 1036.84,583.091C1038.84,583.091 1040.6,583.799 1042.11,585.215C1043.63,586.631 1044.38,588.315 1044.38,590.268C1044.38,592.124 1040.35,602.573 1032.3,621.616L1017.28,656.186Z" style="fill:rgb(84,55,41);fill-rule:nonzero;"/>
                    <path d="M1070.46,567.27C1068.11,567.27 1066.09,566.44 1064.38,564.78C1062.67,563.12 1061.81,561.118 1061.81,558.774C1061.81,556.43 1062.67,554.428 1064.38,552.768C1066.09,551.108 1068.11,550.278 1070.46,550.278C1072.8,550.278 1074.81,551.108 1076.5,552.768C1078.18,554.428 1079.03,556.43 1079.03,558.774C1079.03,561.118 1078.18,563.12 1076.5,564.78C1074.81,566.44 1072.8,567.27 1070.46,567.27ZM1073.75,626.743C1073.75,629.673 1073.84,634.055 1074.01,639.89C1074.18,645.725 1074.27,650.107 1074.27,653.037C1074.27,655.185 1073.61,656.943 1072.29,658.31C1070.97,659.677 1069.24,660.361 1067.09,660.361C1064.99,660.361 1063.27,659.677 1061.92,658.31C1060.58,656.943 1059.91,655.185 1059.91,653.037C1059.91,650.107 1059.82,645.725 1059.65,639.89C1059.48,634.055 1059.4,629.673 1059.4,626.743C1059.4,622.153 1059.64,616.428 1060.13,609.568C1060.62,602.707 1060.86,596.982 1060.86,592.392C1060.86,590.195 1061.53,588.413 1062.88,587.046C1064.22,585.678 1065.94,584.995 1068.04,584.995C1070.14,584.995 1071.86,585.678 1073.2,587.046C1074.55,588.413 1075.22,590.195 1075.22,592.392C1075.22,596.982 1074.97,602.707 1074.49,609.568C1074,616.428 1073.75,622.153 1073.75,626.743Z" style="fill:rgb(84,55,41);fill-rule:nonzero;"/>
                    <path d="M1132.71,663.364C1121.68,663.364 1112.74,660.605 1105.91,655.088C1098.44,648.984 1094.7,640.439 1094.7,629.453C1094.7,616.758 1097.78,606.113 1103.93,597.519C1110.62,588.144 1119.55,583.457 1130.74,583.457C1138.84,583.457 1145.46,584.824 1150.58,587.558C1156.88,590.927 1160.03,596.103 1160.03,603.086C1160.03,607.968 1157.27,612.412 1151.76,616.416C1149.31,618.174 1144.14,620.908 1136.23,624.619L1108.25,637.876C1110.98,641.928 1114.39,644.98 1118.47,647.031C1122.54,649.082 1127.29,650.107 1132.71,650.107C1136.08,650.107 1140.04,649.472 1144.58,648.203C1150.34,646.591 1154.05,644.48 1155.71,641.867C1157.37,639.255 1159.15,637.949 1161.06,637.949C1162.77,637.949 1164.29,638.596 1165.64,639.89C1166.98,641.184 1167.65,642.685 1167.65,644.394C1167.65,649.814 1163.28,654.477 1154.54,658.383C1147.07,661.704 1139.79,663.364 1132.71,663.364ZM1130.74,596.64C1124.78,596.64 1119.82,598.947 1115.87,603.562C1111.91,608.176 1108.96,615.122 1107,624.399L1129.49,613.706C1138.33,609.409 1144.63,605.674 1148.39,602.5C1144.19,598.593 1138.3,596.64 1130.74,596.64Z" style="fill:rgb(84,55,41);fill-rule:nonzero;"/>
                    <path d="M1268.36,594.443C1264.55,610.361 1259.57,628.354 1253.42,648.423C1252.05,652.866 1249.78,657.431 1246.6,662.119C1244.9,664.707 1242.58,665.976 1239.65,665.927C1234.32,665.83 1230.17,659.214 1227.2,646.079C1226.22,641.88 1225.22,636.167 1224.19,628.94L1221.78,612.607L1215.77,626.596L1204.64,656.845C1204,658.701 1203.07,660.117 1201.85,661.093C1200.39,663.925 1198.04,665.39 1194.82,665.488C1191.11,665.634 1187.52,658.359 1184.06,643.662C1182.3,636.093 1180.54,625.84 1178.78,612.9L1177.02,601.914C1176.39,597.519 1176.07,593.833 1176.07,590.854C1176.07,588.803 1176.79,587.107 1178.23,585.764C1179.67,584.421 1181.42,583.75 1183.47,583.75C1187.18,583.75 1189.48,585.776 1190.35,589.829C1190.99,592.71 1191.5,596.274 1191.89,600.522L1192.99,611.289L1197.31,644.175C1202.73,629.135 1208.35,611.801 1214.16,592.173C1215.77,586.753 1218.58,584.043 1222.58,584.043C1226.44,584.043 1229.05,587.07 1230.42,593.125C1231.69,598.838 1233.27,607.627 1235.18,619.492C1237.13,631.797 1238.87,641.391 1240.38,648.276L1245.73,628.354L1255.17,588.437C1255.91,585.459 1258.01,583.969 1261.47,583.969C1263.52,583.969 1265.31,584.665 1266.82,586.057C1268.33,587.448 1269.09,589.121 1269.09,591.074C1269.09,591.318 1268.85,592.441 1268.36,594.443Z" style="fill:rgb(84,55,41);fill-rule:nonzero;"/>
                    <path d="M1332.74,603.598C1330.05,603.598 1328.17,602.695 1327.1,600.888C1326.37,599.619 1325.73,596.982 1325.19,592.978C1321.53,593.906 1315.89,595.615 1308.27,598.105C1300.41,601.23 1296.46,605.088 1296.41,609.677C1297.87,610.215 1299.31,610.605 1300.73,610.849C1311.96,612.851 1320.31,615.61 1325.78,619.126C1333.74,624.253 1337.72,631.675 1337.72,641.391C1337.72,649.35 1334.28,655.356 1327.39,659.409C1321.68,662.729 1314.45,664.389 1305.71,664.389C1299.31,664.389 1293.21,663.315 1287.4,661.167C1279.88,658.432 1276.12,654.624 1276.12,649.741C1276.12,647.788 1276.89,646.079 1278.43,644.614C1279.97,643.149 1281.71,642.417 1283.66,642.417C1285.18,642.417 1287.13,643.589 1289.52,645.932C1290.7,647.055 1293.33,647.983 1297.43,648.716C1300.71,649.301 1303.46,649.594 1305.71,649.594C1309.81,649.594 1313.43,649.106 1316.55,648.13C1321.09,646.714 1323.36,644.467 1323.36,641.391C1323.36,634.751 1318.72,630.258 1309.45,627.915L1301.83,626.23C1295.33,624.814 1290.72,623.154 1287.99,621.25C1284.03,618.515 1282.05,614.389 1282.05,608.872C1282.05,598.667 1286.86,591.391 1296.48,587.046C1299.41,585.727 1304.1,584.153 1310.54,582.321C1316.99,580.49 1321.6,578.94 1324.39,577.671C1326.39,576.792 1328.56,576.352 1330.91,576.352C1333.01,576.352 1334.73,577.036 1336.07,578.403C1337.41,579.77 1338.08,581.552 1338.08,583.75C1338.08,585.166 1338.39,587.241 1339,589.975C1339.61,592.71 1339.91,594.785 1339.91,596.201C1339.91,598.398 1339.24,600.18 1337.9,601.548C1336.56,602.915 1334.84,603.598 1332.74,603.598Z" style="fill:rgb(84,55,41);fill-rule:nonzero;"/>
                </g>
            </g>
        </g>
    </g>
</svg>
